<?xml version="1.0" encoding="UTF-8" standalone="no"?>
<!-- Created with Inkscape (http://www.inkscape.org/) -->

<svg
   width="380.69034"
   height="367.02203"
   viewBox="0 0 380.69034 367.02203"
   version="1.1"
   id="svg5"
   xml:space="preserve"
   sodipodi:docname="logo.svg"
   inkscape:export-filename="themes/hugo-theme-cactus/static/images/logo.png"
   inkscape:export-xdpi="117.76501"
   inkscape:export-ydpi="117.76501"
   inkscape:version="1.2.2 (b0a8486541, 2022-12-01)"
   xmlns:inkscape="http://www.inkscape.org/namespaces/inkscape"
   xmlns:sodipodi="http://sodipodi.sourceforge.net/DTD/sodipodi-0.dtd"
   xmlns="http://www.w3.org/2000/svg"
   xmlns:svg="http://www.w3.org/2000/svg"><sodipodi:namedview
     id="namedview7"
     pagecolor="#ffffff"
     bordercolor="#666666"
     borderopacity="1.0"
     inkscape:showpageshadow="2"
     inkscape:pageopacity="0.0"
     inkscape:pagecheckerboard="0"
     inkscape:deskcolor="#d1d1d1"
     inkscape:document-units="px"
     showgrid="false"
     inkscape:zoom="2.281673"
     inkscape:cx="184.95201"
     inkscape:cy="212.56333"
     inkscape:window-width="1876"
     inkscape:window-height="1011"
     inkscape:window-x="0"
     inkscape:window-y="0"
     inkscape:window-maximized="1"
     inkscape:current-layer="g4652" /><defs
     id="defs2"><inkscape:path-effect
       effect="interpolate_points"
       id="path-effect4660"
       is_visible="false"
       lpeversion="1"
       interpolator_type="Linear" /><inkscape:path-effect
       effect="simplify"
       id="path-effect4656"
       is_visible="false"
       lpeversion="1"
       steps="1"
       threshold="0.0004"
       smooth_angles="0"
       helper_size="5"
       simplify_individual_paths="false"
       simplify_just_coalesce="false" /><inkscape:path-effect
       effect="interpolate_points"
       id="path-effect4614"
       is_visible="false"
       lpeversion="1"
       interpolator_type="Linear" /><inkscape:path-effect
       effect="simplify"
       id="path-effect4610"
       is_visible="false"
       lpeversion="1"
       steps="1"
       threshold="0.0004"
       smooth_angles="0"
       helper_size="5"
       simplify_individual_paths="false"
       simplify_just_coalesce="false" /><inkscape:path-effect
       effect="simplify"
       id="path-effect4656-3"
       is_visible="false"
       lpeversion="1"
       steps="1"
       threshold="0.0004"
       smooth_angles="0"
       helper_size="5"
       simplify_individual_paths="false"
       simplify_just_coalesce="false" /><inkscape:path-effect
       effect="interpolate_points"
       id="path-effect4660-6"
       is_visible="false"
       lpeversion="1"
       interpolator_type="Linear" /></defs><g
     inkscape:label="original"
     inkscape:groupmode="layer"
     id="layer1"
     style="display:none"
     sodipodi:insensitive="true"
     transform="translate(-353.49517,-48.8125)"><path
       style="fill:#000000"
       d="m 389.68527,415.0796 c -18.7,-0.30134 -34.61054,-0.94163 -35.35676,-1.42288 -2.86647,-1.84864 1.52464,-2.59456 15.36279,-2.60969 l 14.00603,-0.0153 10e-4,-52.01393 c 10e-4,-45.96385 -0.17388,-51.94012 -1.50603,-51.37935 -4.87665,2.05281 -20.67166,6.35239 -21.77745,5.92806 -0.7228,-0.27736 -2.17563,-2.42366 -3.22851,-4.76954 -1.49506,-3.33106 -1.65011,-4.53052 -0.70793,-5.47642 1.25628,-1.26126 25.77936,-10.7227 48.2064,-18.59889 27.33489,-9.59978 41.45848,-14.63859 54.5,-19.44373 7.425,-2.73573 20.25,-7.35786 28.5,-10.27139 8.25,-2.91353 15.51835,-5.69322 16.15189,-6.17708 0.63353,-0.48387 1.45401,-2.09881 1.82327,-3.58875 0.67803,-2.7358 2.61677,-8.01736 19.8989,-54.20898 15.78049,-42.17802 15.70381,-42 18.09101,-42 2.40183,0 3.61817,2.89391 22.14338,52.68331 5.97205,16.05081 10.91607,29.10081 10.98671,29 0.0706,-0.10082 0.40278,-24.66769 0.73808,-54.59303 l 0.60963,-54.40972 -2.91841,2.79601 c -2.57468,2.4667 -3.41051,2.71732 -7.09668,2.12788 -4.76654,-0.76228 -7.92732,-2.22149 -7.92732,-3.65996 0,-0.54183 4.15714,-5.58849 9.23808,-11.21481 20.56385,-22.771108 41.9074,-45.674302 44.94932,-48.23391 l 3.22735,-2.715632 10.05946,10.359932 c 25.59169,26.356106 47.47679,50.82395 46.87109,52.40247 -1.5836,4.12688 -10.0664,4.53473 -15.0622,0.72421 l -3.5835,-2.73326 0.6444,27.48325 c 0.3544,15.11579 0.9381,49.84797 1.2971,77.18262 0.5814,44.27881 0.8275,49.7692 2.2558,50.3396 0.8817,0.35213 8.3531,3.04376 16.6031,5.98141 14.9588,5.32651 47.4385,17.23545 52.8546,19.3796 2.4538,0.97141 2.7634,1.51414 2.2049,3.86506 -0.3574,1.50423 -1.4812,3.85997 -2.4973,5.23497 -2.3037,3.11722 -4.6001,3.0047 -16.3122,-0.79925 l -8.75,-2.84189 v 41.16501 c 0,22.64075 -0.2934,45.96001 -0.652,51.82057 l -0.6519,10.65556 10.4019,0.009 c 13.2456,0.0111 20.902,0.91713 20.902,2.47356 0,0.86376 -4.7045,1.38921 -16.6597,1.86071 -19.1723,0.75613 -277.00587,0.52406 -327.8403,-0.29508 z m 3.84112,-57.80908 c 0.14019,-46.99502 -0.0176,-53.18771 -1.34112,-52.63655 -0.825,0.34356 -2.34349,0.86573 -3.37441,1.16037 -1.67782,0.47952 -1.81531,1.28049 -1.31088,7.63655 0.30995,3.90545 0.21594,27.12583 -0.20891,51.60083 -0.42485,24.475 -0.58022,44.86286 -0.34528,45.30636 0.23495,0.4435 1.77595,0.6685 3.42445,0.5 l 2.99727,-0.30636 z m 61.08866,28.00335 c 4.57689,-12.50818 13.51951,-36.91715 19.8725,-54.24215 18.2615,-49.80029 22.44986,-62.00004 21.28539,-61.9995 -0.59822,2.8e-4 -3.56267,0.95234 -6.58767,2.11569 -3.025,1.16334 -23.05,8.10315 -44.5,15.42178 -21.45,7.31863 -40.8,13.94937 -43,14.73496 l -4,1.42836 v 53.63154 53.63154 l 23.5,0.26782 c 18.02431,0.20541 23.68736,-0.0253 24.30408,-0.99004 0.44225,-0.69182 4.54881,-11.49182 9.1257,-24 z m 13.05234,-0.74215 c 4.7598,-13.2 9.74852,-26.77675 11.08603,-30.17056 1.33752,-3.3938 2.43185,-6.42299 2.43185,-6.73152 0,-0.30853 3.64652,-10.58178 8.10338,-22.82945 4.45685,-12.24766 12.96655,-35.99347 18.91043,-52.76847 29.72396,-83.88789 33.23875,-93 35.87268,-93 1.56859,0 5.13911,9.02316 18.59822,47 19.05187,53.75763 34.4633,96.51682 60.01057,166.5 6.46028,17.69703 6.91734,18.5 10.53042,18.5 1.6359,0 2.9743,-0.44576 2.9743,-0.99058 0,-0.54482 -1.8499,-5.83232 -4.11083,-11.75 -2.26096,-5.91768 -6.5117,-17.50942 -9.4461,-25.75942 -2.93439,-8.25 -9.22286,-25.575 -13.97437,-38.5 -4.75151,-12.925 -12.61664,-34.75 -17.47805,-48.5 -4.86142,-13.75 -13.62915,-38.05 -19.48384,-54 -5.85469,-15.95 -14.55107,-39.64468 -19.32529,-52.65485 -4.77422,-13.01017 -8.96281,-23.48032 -9.30797,-23.267 -0.34516,0.21332 -1.16513,2.52273 -1.82216,5.13202 -0.65702,2.60929 -5.63872,16.67944 -11.07044,31.267 -5.43172,14.58756 -15.53174,42.27283 -22.44448,61.52283 -6.91274,19.25 -15.45738,42.875 -18.98808,52.5 -3.5307,9.625 -10.90576,29.875 -16.38903,45 -5.48327,15.125 -12.20801,33.575 -14.94387,41 -7.05333,19.14242 -6.79383,17.79579 -3.51042,18.21718 1.53721,0.19728 3.31871,-0.10838 3.9589,-0.67924 0.64018,-0.57087 5.05835,-11.83794 9.81815,-25.03794 z m 110.90917,-19.53816 0.10871,-45.53817 -15.5,0.35155 c -8.525,0.19335 -16.02677,0.52018 -16.67059,0.7263 -0.64383,0.20613 -1.01576,1.1901 -0.82652,2.18662 0.18925,0.99653 0.37852,21.03184 0.4206,44.52293 l 0.0765,42.71106 8.75,0.28894 c 4.8125,0.15891 12.07608,0.28893 16.14129,0.28893 h 7.39128 l 0.10872,-45.53816 z m -27.34112,8.13191 c -1.99787,-3.73306 -1.01683,-10.09375 1.55682,-10.09375 1.02,0 1.39301,1.45695 1.39301,5.44098 0,5.84514 -1.25353,7.82233 -2.94983,4.65277 z m 74.24032,37.28243 c 0.3431,-0.3431 -0.32802,-2.4806 -1.49138,-4.75 -1.16336,-2.2694 -5.38001,-13.35118 -9.37034,-24.62618 -3.99032,-11.275 -9.57746,-26.575 -12.41586,-34 -2.8384,-7.425 -8.08548,-21.825 -11.66018,-32 -9.53923,-27.1524 -43.03819,-119.08271 -45.23908,-124.14842 l -1.89063,-4.35158 -1.17302,2.97689 c -0.64517,1.6373 -11.28188,30.8873 -23.63714,65 -12.35526,34.11271 -25.42041,70.12311 -29.03367,80.02311 -9.81447,26.89073 -17.73827,48.68211 -22.18086,61 -2.18201,6.05 -4.29242,11.7875 -4.6898,12.75 -0.67504,1.63502 0.69957,1.75 20.9213,1.75 h 21.64381 l -0.28682,-43.75 c -0.15775,-24.0625 0.0468,-44.93786 0.45455,-46.3897 0.40775,-1.45183 1.52251,-2.93945 2.47724,-3.30581 0.95472,-0.36637 17.4621,-0.65894 36.68305,-0.65017 30.4868,0.0139 35.14827,0.21737 36.52276,1.59408 1.38382,1.38606 1.59061,7.08066 1.69905,46.78986 0.0679,24.86646 0.18041,45.54924 0.25,45.96174 0.15169,0.89913 41.521,1.02219 42.41702,0.12618 z m 64.49891,-53.19913 0.2893,-53.82015 -2.7893,-1.28701 c -1.5342,-0.70786 -21.0144,-7.4991 -43.2894,-15.09166 -22.275,-7.59256 -43.59204,-14.98537 -47.3712,-16.42847 -6.07692,-2.32051 -6.78669,-2.41724 -6.14017,-0.83679 0.40207,0.98287 3.57002,9.88703 7.03989,19.78703 3.46987,9.9 9.30149,26.1 12.95915,36 3.65766,9.9 8.13127,22.05 9.94136,27 12.82067,35.06024 19.54427,53.38173 20.45917,55.75 l 1.0623,2.75 23.7747,-0.001 23.7748,-10e-4 0.2894,-53.82015 z m -53.7894,4.9288 -2.5,-0.69479 -0.2702,-21.95418 c -0.24314,-19.75648 -0.099,-22.07944 1.4411,-23.20553 2.3674,-1.73109 37.4034,-1.77707 39.1291,-0.0514 0.8612,0.86124 1.2,7.46511 1.2,23.39301 0,19.31463 -0.2052,22.27174 -1.5818,22.8 -2.154,0.82657 -34.2984,0.57988 -37.4182,-0.28716 z m 16,-11.993 v -8.88716 l -7.25,-0.44969 c -3.9875,-0.24734 -7.3041,-0.41062 -7.3703,-0.36285 -0.066,0.0478 -0.3472,4.24935 -0.6245,9.33685 l -0.5041,9.25 h 7.8744 7.8745 z m 19.0001,-0.28385 -1e-4,-8.67099 -7.5023,-0.32901 -7.5024,-0.329 v 9 9 h 7.4988 7.4988 l -10e-5,-8.671 z m -19.0001,-22.18466 v -8.35566 l -7.7266,-0.58437 c -4.2497,-0.3214 -7.7642,-0.49885 -7.8101,-0.39434 -0.046,0.10452 0.1022,4.12753 0.3292,8.94003 l 0.4127,8.75 h 7.3974 7.3974 z m 19.1765,-0.14667 0.3235,-8.50234 -7.75,0.002 -7.75,0.002 v 8.5 8.5 h 7.4265 7.4266 l 0.3234,-8.50233 z m 29.4582,73.75233 c -0.3582,-5.3625 -0.6727,-28.95228 -0.699,-52.42172 l -0.048,-42.67173 -3.0931,-1.07827 c -1.7012,-0.59306 -3.1385,-1.07811 -3.1939,-1.07791 -0.102,3.7e-4 0.235,104.86508 0.3415,106.24963 0.032,0.4125 1.697,0.75 3.7007,0.75 h 3.6429 l -0.6512,-9.75 z m -159.11045,-36.13851 -0.0243,-44.8885 -16.5,-0.4417 c -9.075,-0.24293 -16.5,-0.4056 -16.5,-0.36149 0,0.0441 0.13791,20.4427 0.30647,45.3302 l 0.30647,45.25 h 16.21778 16.21778 z m -8.06105,7.59792 c -1.00858,-4.0185 -0.14236,-9.20941 1.5368,-9.20941 1.14872,0 1.5,1.26852 1.5,5.41667 0,5.73912 -1.94013,8.16221 -3.0368,3.79274 z M 387.8023,301.443 c 19.77024,-7.10971 108.95419,-37.41128 110.10934,-37.41128 0.3506,0 4.27363,-8.80906 4.27363,-9.59633 0,-0.23678 -1.6875,0.28376 -3.75,1.15675 -4.39064,1.85843 -27.86537,10.65988 -37.25,13.96626 -3.575,1.25953 -12.35,4.39397 -19.5,6.96541 -7.15,2.57144 -16.6,5.94666 -21,7.50049 -4.4,1.55383 -14.525,5.15876 -22.5,8.01096 -7.975,2.8522 -19.675,6.98561 -26,9.18536 -6.325,2.19975 -11.64896,4.14361 -11.83102,4.31968 -0.55788,0.53953 1.84702,4.49142 2.73323,4.49142 0.45752,0 11.57918,-3.86492 24.71482,-8.58872 z m 338.18297,7.38872 c 1.9858,-1.98575 1.3758,-3.33646 -2.05,-4.53985 -15.4159,-5.41513 -64.6027,-22.84514 -69.75,-24.71685 -3.575,-1.29997 -15.95,-5.7679 -27.5,-9.92874 -11.55,-4.16083 -25.6125,-9.31878 -31.25,-11.46211 -5.6375,-2.14333 -10.25,-3.72334 -10.25,-3.51114 0,0.21221 0.44981,1.16722 0.99957,2.12226 0.54976,0.95504 1.40085,2.87457 1.8913,4.26564 0.71702,2.03366 2.4315,3.04544 8.75044,5.16399 32.32823,10.83867 81.33219,27.55029 93.35869,31.83772 19.5563,6.97182 33.3827,11.80117 34.05,11.89322 0.3025,0.0417 1.09,-0.46414 1.75,-1.12414 z m -72.1709,-56.05 c -0.3384,-11.6875 -0.8865,-47.125 -1.2179,-78.75 l -0.6025,-57.5 -7.7408,-8 c -4.2574,-4.4 -11.86894,-12.608361 -16.91446,-18.240805 -5.04552,-5.632445 -9.50662,-10.212189 -9.91356,-10.177211 -0.40693,0.03498 -8.43112,8.491318 -17.83152,18.791866 l -17.09164,18.72827 -0.71762,63.02182 c -0.55117,48.40441 -0.43744,63.63676 0.49035,65.67303 0.76789,1.68534 2.70211,3.2012 5.30926,4.16091 34.02869,12.52615 64.38709,23.40708 65.47349,23.46675 1.1404,0.0626 1.2682,-3.51356 0.7569,-21.17463 z M 584.82495,108.29721 c 7.62318,-8.10399 17.23532,-18.349061 21.36032,-22.766835 12.48053,-13.366342 8.98808,-14.243407 29.1575,7.322359 9.6082,10.273446 19.8697,21.266486 22.8032,24.428986 4.0906,4.40982 5.9987,5.75 8.1865,5.75 1.5691,0 2.8528,-0.34957 2.8528,-0.77682 0,-0.42725 -3.1863,-3.91475 -7.0808,-7.75 -10.563,-10.40254 -30.45842,-32.474549 -43.98745,-48.799838 -0.37679,-0.454664 -7.5461,6.970336 -15.9318,16.5 -8.3857,9.529663 -18.86552,21.151658 -23.28849,25.826658 -4.42297,4.675 -9.40572,9.9625 -11.07278,11.75 l -3.03101,3.25 h 3.08584 c 2.68107,0 4.90397,-1.93279 16.94617,-14.73451 z"
       id="path2308"
       sodipodi:nodetypes="cssccsssssssssssssscssssscssscsssssssscssccssccssssssscssssssscccsssssssssssssssssssssssssssssccsssscsscccsssssssssscsssssscssssssssccsssssssscccccccsssssscccsssccccccccccccccccsssccccccccccccccsccsscsccsccsssccccsssssssssssssssssssssssssssssscsssscssssssssssscsssscss" /></g><g
     inkscape:label="completo"
     inkscape:groupmode="layer"
     id="g2359"
     transform="translate(-353.49517,-48.8125)"
     style="display:none"
     sodipodi:insensitive="true"><path
       id="path2483"
       style="fill:#deaa87;stroke:none;stroke-width:0.71434;stroke-linecap:round;stroke-linejoin:round"
       d="m 494.9375,267.42578 c -8.23928,2.8173 -16.43813,5.75301 -24.67806,8.56945 -23.56859,8.12255 -47.17414,16.25815 -70.78057,24.2741 -0.82029,0.3134 -1.76479,0.40229 -2.33084,1.15 -0.97087,0.57224 -0.71193,1.80602 -0.77952,2.75991 -0.19315,15.19747 -0.16947,30.39689 -0.19774,45.59536 -0.0148,20.01523 -0.003,40.03048 -0.007,60.04571 0.32065,0.49418 0.37955,1.26866 0.87285,1.57795 0.70716,0.33527 1.44236,0.51555 2.22715,0.42158 13.73033,-0.0511 27.46432,0.12531 41.19134,-0.24749 1.58393,-0.11767 3.22156,0.0153 4.76446,-0.38553 1.53418,-0.56915 1.94978,-2.32524 2.6108,-3.64579 3.17265,-7.73194 5.98442,-15.6057 8.909,-23.43315 10.09838,-27.44394 20.14442,-54.90775 30.09994,-82.40438 3.34633,-9.3486 6.80131,-18.66245 9.84855,-28.11446 0.3854,-1.52072 1.14384,-3.05928 0.88244,-4.65898 -0.25308,-0.54294 -0.49878,-1.11435 -1.11712,-1.31592 -0.42075,-0.3926 -1.00505,-0.14102 -1.51597,-0.18836 z" /><path
       id="path2485"
       style="fill:#deaa87;stroke:none;stroke-width:0.71434;stroke-linecap:round;stroke-linejoin:round"
       d="m 542.37109,185.83398 c -0.57661,0.6043 -1.08876,1.2466 -1.28138,2.07734 -10.71418,29.28881 -21.31403,58.62077 -31.97167,87.93026 -13.12098,36.19105 -26.28107,72.3677 -39.40865,108.55586 -2.7388,7.70368 -5.55903,15.38303 -8.02518,23.17955 -0.2176,0.75443 -0.55859,1.65643 0.0559,2.31857 0.25161,0.59303 0.65381,1.0964 1.3306,1.18448 3.13112,0.36133 6.29752,0.31865 9.44551,0.43695 10.6988,0.2304 21.40063,0.25683 32.10094,0.38145 0.49639,-0.31583 1.27308,-0.36591 1.58477,-0.85686 0.33949,-0.71195 0.53113,-1.4511 0.4351,-2.24314 0.0408,-23.96187 -0.0811,-47.92465 0.16797,-71.88569 0.0865,-5.42441 0.0886,-10.83452 0.37661,-16.20572 0.11386,-0.79926 0.4504,-1.56408 0.88281,-2.24219 2.76407,-0.34389 5.45938,-0.30954 8.2175,-0.36906 14.34508,-0.13886 28.69118,0.006 43.03629,0.0815 6.21563,0.0829 12.43949,0.0191 18.64655,0.39174 0.64683,0.0745 1.34579,0.0787 1.94927,0.29617 0.5637,2.53274 0.48106,5.15897 0.62014,7.73904 0.42859,14.63255 0.57922,29.41921 0.71076,44.11532 0.14141,12.51259 -0.009,25.03076 0.41049,37.53871 0.11009,0.85393 -0.0611,1.82747 0.37389,2.59188 0.63192,0.49937 1.13002,1.31696 2.03511,1.24943 6.46811,0.35698 12.95163,0.30584 19.42773,0.34751 6.5019,-0.0314 13.01177,0.0708 19.50612,-0.2909 1.31208,-0.13347 3.07759,-0.12148 3.69307,-1.53813 0.62555,-1.1343 -0.10548,-2.41961 -0.44648,-3.53977 -1.76954,-4.71942 -3.72376,-9.3678 -5.44685,-14.10565 -9.48756,-25.497 -18.70704,-51.09238 -27.98431,-76.66667 -14.07475,-38.80744 -27.94917,-77.68839 -42.41272,-116.35312 -1.68734,-4.38167 -3.25073,-8.81826 -5.1511,-13.11295 -0.22645,-0.53927 -0.8068,-0.78353 -1.23038,-1.14266 -0.54948,0.0456 -1.09896,0.0911 -1.64844,0.13671 z" /><path
       id="path2487"
       style="fill:#deaa87;stroke:none;stroke-width:0.71434;stroke-linecap:round;stroke-linejoin:round"
       d="m 590.78516,267.46094 c -0.59507,0.5375 -1.5607,0.9901 -1.47242,1.93241 0.10106,1.43983 0.75825,2.78171 1.14842,4.16096 4.53155,13.35664 9.38226,26.60236 14.14608,39.8768 11.79857,32.61491 23.81447,65.15056 35.77167,97.70756 0.58949,0.50499 0.99885,1.34941 1.87695,1.31055 15.58919,0 31.17838,0 46.76758,0 0.49521,-0.32026 1.26652,-0.38036 1.57962,-0.87221 0.39125,-0.75001 0.49283,-1.55653 0.44384,-2.39242 0.28837,-15.48318 0.57881,-30.96656 0.68094,-46.45235 0.17206,-19.76382 0.12462,-39.52846 0.13154,-59.29279 -0.38167,-0.70223 -0.49658,-1.66787 -1.38253,-1.90471 -7.28383,-2.79867 -14.6954,-5.24758 -22.05113,-7.84757 -23.95512,-8.33263 -47.93275,-16.60086 -71.89009,-24.9259 -1.68041,-0.52552 -3.34902,-1.19698 -5.10985,-1.38236 -0.21354,0.0273 -0.42708,0.0547 -0.64062,0.082 z m 61.03125,49.30273 c 6.27814,0.0339 12.50768,0.11493 18.75202,0.49427 0.66483,0.0538 1.33072,0.0967 1.99212,0.18542 0.49572,1.79962 0.51123,3.86982 0.62304,5.60352 0.27404,9.01587 0.0638,18.03752 -0.0237,27.05487 -0.0946,3.35479 -0.01,6.72877 -0.41651,10.06492 0.0773,0.73134 -0.75096,0.61157 -1.24858,0.70642 -4.83979,0.37476 -9.70228,0.20736 -14.55224,0.22499 -6.0382,-0.0863 -12.08795,0.0173 -18.11429,-0.4243 -1.22952,-0.11225 -2.45227,-0.28639 -3.67009,-0.48823 0.0188,-11.20931 -0.0328,-22.41891 0.009,-33.62802 0.0824,-2.69722 -0.0352,-5.45661 0.67631,-8.08292 0.13434,-0.80361 0.91788,-1.12604 1.64316,-1.17183 4.75981,-0.46635 9.5488,-0.55403 14.3295,-0.53911 z" /><path
       id="path2783"
       style="fill:#784421;stroke:none;stroke-width:0.599213;stroke-linecap:round;stroke-linejoin:round"
       d="m 586.20508,253.58203 c -1.322,0.007 -2.38007,1.36203 -2.07227,2.64649 0.64113,2.1742 1.83535,4.14199 2.94336,6.10546 0.81611,1.62268 2.37271,2.67165 4.0127,3.34168 5.27763,2.20472 10.741,3.92627 16.13165,5.82874 28.00274,9.5448 56.01021,18.99892 83.93296,28.74301 9.66883,3.33565 19.31578,6.83076 29.02427,10.08964 1.45525,0.3636 2.88036,1.20322 4.41795,0.99889 1.96538,-0.45689 3.67495,-2.15695 4.02539,-4.16016 0.22436,-2.00726 -1.60959,-3.53059 -3.3604,-4.06956 -18.49371,-6.74235 -37.06899,-13.26055 -55.6115,-19.86805 -22.62253,-8.01476 -45.20615,-16.14074 -67.71953,-24.4586 -4.71195,-1.68703 -9.37772,-3.52282 -14.17185,-4.96707 -0.5082,-0.12677 -1.02492,-0.25179 -1.55273,-0.23047 z" /><path
       id="path2785"
       style="fill:#784421;stroke:none;stroke-width:0.599213;stroke-linecap:round;stroke-linejoin:round"
       d="m 542.10742,154.31836 c -0.56351,0.62457 -1.06722,1.28212 -1.23272,2.12619 -2.66566,7.98477 -5.38744,15.88588 -8.24987,23.80206 -6.4675,17.92227 -13.09105,35.78426 -19.57511,53.70277 -15.32106,42.1648 -30.57848,84.35304 -45.93871,126.50382 -5.38514,14.83918 -10.82504,29.65982 -15.97696,44.58205 -0.53132,1.64579 -1.44089,3.53687 -0.51882,5.21475 0.91098,1.48672 2.84628,1.4312 4.37734,1.50071 1.63994,-6.7e-4 3.6552,-0.26147 4.4756,-1.9005 1.71708,-3.19017 2.90887,-6.63121 4.24962,-9.98977 5.90036,-15.42447 11.47437,-30.97094 17.13423,-46.48436 15.16986,-41.82107 29.95981,-83.77803 44.94869,-125.66452 4.44459,-12.28493 8.82282,-24.59924 13.68996,-36.72514 1.34815,-3.19676 2.58812,-6.47335 4.43316,-9.42587 1.32073,2.34833 2.30912,4.93625 3.27348,7.30478 4.68594,12.00607 8.95713,24.16872 13.33038,36.2906 18.20772,50.9555 36.40387,101.91475 55.02091,152.72227 3.44771,9.30488 6.80779,18.64488 10.4807,27.86399 0.95431,2.0983 1.955,4.28195 3.64062,5.90039 1.6457,1.16729 3.88339,1.43315 5.8086,0.89062 1.51995,-0.38999 2.70171,-2.05719 2.1157,-3.61096 -2.83107,-8.36032 -5.96079,-16.61718 -8.95906,-24.91885 -13.85339,-37.93008 -27.57512,-75.89013 -41.20426,-113.90537 -11.61883,-32.2334 -23.29892,-64.44521 -35.29173,-96.54167 -2.30833,-6.12616 -4.59323,-12.26393 -7.17237,-18.28291 -0.48553,-0.32406 -0.83972,-1.04135 -1.41181,-1.10619 -0.48252,0.0504 -0.96505,0.10074 -1.44757,0.15111 z" /><path
       id="path2787"
       style="fill:#784421;stroke:none;stroke-width:0.599213;stroke-linecap:round;stroke-linejoin:round"
       d="m 501.15039,253.19531 c -2.15901,0.47107 -4.20797,1.35938 -6.29568,2.07516 -7.33801,2.68208 -14.59691,5.49022 -21.92878,8.13386 -31.77175,11.58742 -63.69817,22.91361 -95.61208,34.21208 -5.62123,2.01626 -11.26887,3.96532 -16.84315,6.1082 -1.38357,0.52434 -2.11123,2.20649 -1.47851,3.55859 0.78787,1.68739 1.9215,3.56036 3.83487,4.07949 1.38085,0.1757 2.65654,-0.58754 3.96477,-0.91616 16.12899,-5.38542 32.14195,-11.10987 48.22575,-16.62817 23.98881,-8.27191 48.03374,-16.44923 72.12695,-24.4707 3.85021,-1.35594 7.75705,-2.60177 11.45899,-4.33399 1.44532,-0.71277 1.86053,-2.41153 2.56639,-3.72949 0.80246,-1.86559 1.73778,-3.71127 2.18162,-5.70185 0.11091,-0.63961 -0.11254,-1.25752 -0.64848,-1.63522 -0.39237,-0.5704 -0.869,-0.76409 -1.55266,-0.7518 z" /><path
       id="path2789"
       style="fill:#784421;stroke:none;stroke-width:0.599213;stroke-linecap:round;stroke-linejoin:round"
       d="m 391.78906,303.3457 c -1.75698,0.1881 -3.57082,0.68792 -4.99056,1.77386 -1.00802,0.76609 -0.92352,2.09746 -0.87991,3.22377 -0.0414,22.21519 -0.28444,44.4296 -0.4911,66.64377 -0.11529,9.43535 -0.17313,18.87211 -0.38061,28.30587 -0.28315,1.91694 0.03,3.87665 0.32226,5.77734 0.21999,1.47289 1.04415,3.1547 2.68164,3.375 1.80799,0.19416 3.65777,-0.0149 5.43829,-0.25877 0.54879,-0.41774 1.47404,-0.53126 1.53169,-1.34589 0.39233,-1.1156 0.0985,-2.33734 0.184,-3.5004 -0.10872,-29.87159 -0.0935,-59.74403 -0.37846,-89.61467 -0.0686,-4.14367 -0.0403,-8.29345 -0.25289,-12.43195 -0.16548,-0.5458 -0.52859,-1.09912 -0.9195,-1.50622 -0.54037,-0.37758 -1.21944,-0.47594 -1.86485,-0.44171 z" /><path
       id="path2939"
       style="fill:#803300;fill-rule:evenodd;stroke:none;stroke-width:0.565045;stroke-linecap:round;stroke-linejoin:round;stroke-dasharray:none"
       d="m 693.64844,303.68945 c -0.93765,0.94359 -0.75961,2.33699 -0.86446,3.55149 -0.37227,11.36716 -0.37365,22.74309 -0.44957,34.11528 -0.0649,20.0841 -0.094,40.17008 0.21036,60.25246 0.0998,2.94966 0.0237,5.91859 0.36816,8.85162 0.26153,0.90928 1.01734,1.67993 1.94796,1.92344 1.66105,0.54424 3.46089,0.45865 5.1696,0.38737 0.5804,-0.36653 1.53548,-0.38318 1.62718,-1.20606 0.51992,-1.04037 0.18957,-2.23472 0.28178,-3.35255 0,-33.96211 0,-67.92422 0,-101.88633 -0.38248,-0.66113 -0.45304,-1.6151 -1.30323,-1.83714 -1.7648,-0.56046 -3.5843,-1.05927 -5.42919,-1.30153 -0.51953,0.16732 -1.03906,0.33464 -1.55859,0.50195 z" /><path
       id="path3010"
       style="fill:#80b3ff;fill-rule:evenodd;stroke:none;stroke-width:0.565045;stroke-linecap:round;stroke-linejoin:round;stroke-dasharray:none"
       d="m 635.69727,317.45312 c -0.32284,0.77367 -0.68261,1.54491 -0.52396,2.40331 0.2008,5.19639 0.45993,10.39035 0.70169,15.58498 0.34268,0.48092 0.44091,1.24271 0.94469,1.53856 0.80225,0.41086 1.67583,0.4009 2.55336,0.36769 4.15234,0 8.30468,0 12.45703,0 0.49417,-0.32065 1.26866,-0.37955 1.57794,-0.87285 0.33519,-0.70716 0.51559,-1.44236 0.42206,-2.22715 0,-4.92891 0,-9.85782 0,-14.78672 -0.31965,-0.49677 -0.38161,-1.26334 -0.87122,-1.58214 -0.78411,-0.44666 -1.65805,-0.47737 -2.53745,-0.48277 -4.39753,-0.19214 -8.79432,-0.40285 -13.19289,-0.56986 -0.51042,0.20899 -1.02084,0.41797 -1.53125,0.62695 z" /><path
       id="path3012"
       style="fill:#80b3ff;fill-rule:evenodd;stroke:none;stroke-width:0.565045;stroke-linecap:round;stroke-linejoin:round;stroke-dasharray:none"
       d="m 655.03906,339.69336 c -0.30615,0.74575 -0.61823,1.49044 -0.49218,2.31445 0,5.32683 -10e-6,10.65365 0,15.98047 0.32065,0.49418 0.37954,1.26866 0.87284,1.57795 0.70716,0.33519 1.44236,0.51558 2.22716,0.42205 4.34947,0 8.69895,0 13.04843,0 0.49418,-0.32065 1.26866,-0.37955 1.57795,-0.87285 0.33519,-0.70716 0.51558,-1.44235 0.42205,-2.22715 0,-4.90026 0,-9.80052 0,-14.70078 -0.38356,-0.61455 -0.41316,-1.57255 -1.22401,-1.77248 -1.12425,-0.46901 -2.38816,-0.53334 -3.57256,-0.82084 -3.74663,-0.65517 -7.56291,-0.59995 -11.35186,-0.58637 -0.50261,0.22852 -1.00521,0.45703 -1.50782,0.68555 z" /><path
       id="path3014"
       style="fill:#80b3ff;fill-rule:evenodd;stroke:none;stroke-width:0.565045;stroke-linecap:round;stroke-linejoin:round;stroke-dasharray:none"
       d="m 663.85742,317.31055 c -2.46413,0.0286 -4.95242,-0.0543 -7.40158,0.0433 -0.5804,0.36653 -1.53548,0.38318 -1.62718,1.20606 -0.51993,1.04037 -0.18958,2.23472 -0.28178,3.35255 0,4.47839 -10e-6,8.95677 0,13.43516 0.32065,0.49417 0.37954,1.26866 0.87284,1.57794 0.70716,0.33519 1.44236,0.51558 2.22716,0.42206 4.30325,0 8.60651,0 12.90976,0 0.49633,-0.31983 1.26424,-0.38126 1.58143,-0.87151 0.44469,-0.79002 0.4763,-1.66704 0.47393,-2.55123 0.18577,-4.84667 0.37007,-9.69341 0.55402,-14.54015 -0.30238,-0.50328 -0.32855,-1.28563 -0.81282,-1.60512 -0.7244,-0.35212 -1.47341,-0.57562 -2.28523,-0.47076 -2.07018,5.5e-4 -4.14037,10e-4 -6.21055,0.002 z" /><path
       id="path3016"
       style="fill:#80b3ff;fill-rule:evenodd;stroke:none;stroke-width:0.565045;stroke-linecap:round;stroke-linejoin:round;stroke-dasharray:none"
       d="m 636.17188,339.69336 c -0.30616,0.74575 -0.61824,1.49044 -0.49219,2.31445 0.0806,4.89886 -0.14061,9.80914 -0.90777,14.65318 -0.074,0.95912 -0.47894,1.94388 -0.0158,2.86139 0.005,0.74299 0.62894,0.94568 1.21793,1.17899 0.85345,0.45542 1.8751,0.13447 2.80646,0.23027 4.34987,0 8.69974,0 13.04961,0 0.49417,-0.32065 1.26866,-0.37955 1.57794,-0.87285 0.33519,-0.70716 0.51559,-1.44235 0.42206,-2.22715 0,-5.21471 0,-10.42943 0,-15.64414 -0.38356,-0.61455 -0.41316,-1.57255 -1.22402,-1.77248 -1.12482,-0.47003 -2.39,-0.53185 -3.57452,-0.82269 -3.74713,-0.65129 -7.56283,-0.5991 -11.35185,-0.58452 -0.50261,0.22852 -1.00521,0.45703 -1.50781,0.68555 z" /><path
       id="path3018"
       style="fill:#80b3ff;fill-rule:evenodd;stroke:none;stroke-width:0.565045;stroke-linecap:round;stroke-linejoin:round;stroke-dasharray:none"
       d="m 565.75,318.26562 c -5.33267,0.0477 -10.67902,0.0626 -15.99157,0.56883 -1.32637,0.23084 -2.68929,0.38654 -3.98803,0.69381 -0.5232,0.45289 -1.41985,0.63415 -1.45573,1.44151 -0.29043,1.22436 -0.0626,2.52083 -0.13498,3.77554 0.032,22.04629 -0.0883,44.09332 0.12374,66.13897 0.092,5.93735 0.0861,11.88105 0.41173,17.8111 -0.0249,0.78477 0.27798,1.49549 0.84895,2.03122 0.81027,0.80216 2.10523,0.65356 3.16137,0.7939 8.79538,0.52483 17.61249,0.2947 26.41827,0.34864 1.06312,-0.029 2.15118,0.0571 3.19924,-0.0414 0.5804,-0.36653 1.53548,-0.38318 1.62718,-1.20606 0.51992,-1.04037 0.18957,-2.23472 0.28178,-3.35255 0,-29.00443 0,-58.00885 0,-87.01328 -0.32067,-0.49412 -0.3795,-1.26878 -0.87288,-1.57786 -0.70794,-0.33487 -1.44368,-0.51564 -2.22907,-0.42128 -3.8,0.003 -7.6,0.006 -11.4,0.009 z" /><path
       id="path3020"
       style="fill:#80b3ff;fill-rule:evenodd;stroke:none;stroke-width:0.565045;stroke-linecap:round;stroke-linejoin:round;stroke-dasharray:none"
       d="m 507.88086,318.94141 c -0.30615,0.74575 -0.61823,1.49043 -0.49219,2.31445 0,29.53776 0,59.07552 0,88.61328 0.32065,0.49417 0.37955,1.26866 0.87285,1.57795 0.70716,0.33519 1.44236,0.51558 2.22715,0.42205 10.32474,0 20.64948,0 30.97422,0 0.49417,-0.32065 1.26866,-0.37955 1.57795,-0.87285 0.33519,-0.70716 0.51558,-1.44235 0.42205,-2.22715 0,-29.50443 0,-59.00885 0,-88.51328 -0.32065,-0.49417 -0.37955,-1.26866 -0.87285,-1.57795 -0.70716,-0.33519 -1.44235,-0.51558 -2.22715,-0.42205 -10.32474,0 -20.64948,0 -30.97422,0 -0.5026,0.22851 -1.00521,0.45703 -1.50781,0.68555 z" /><path
       id="path4527"
       style="fill:#784421;fill-opacity:1;fill-rule:evenodd;stroke:none;stroke-width:0.142747;stroke-linecap:round;stroke-linejoin:round;stroke-dasharray:none"
       d="m 596.57422,52.558594 c -3.85819,4.249479 -7.39481,8.77758 -11.06584,13.185961 -5.32731,6.533731 -10.69977,13.033147 -16.33725,19.303472 -8.26356,9.394242 -16.72961,18.685863 -25.33448,27.774253 -2.68469,2.88477 -5.45642,5.69349 -8.03782,8.67186 -0.0451,0.58728 -0.46651,1.23727 -0.26373,1.78324 0.33891,0.54545 0.59893,1.18329 1.28666,1.34748 1.43031,0.3357 2.96394,0.28194 4.41262,0.0451 2.62798,-0.6104 4.5304,-2.68828 6.48491,-4.40166 4.54517,-4.29913 8.77057,-8.92203 12.99849,-13.52924 9.54613,-10.66881 18.82061,-21.576732 28.25921,-32.340256 3.40926,-3.845139 6.73197,-7.775306 10.33356,-11.443686 5.90325,6.339015 11.5627,12.900225 17.33784,19.35545 10.49707,11.803514 20.90567,23.688132 31.52813,35.380732 1.95001,2.02335 3.7445,4.25606 6.0605,5.87951 2.22961,1.39997 5.17742,1.71206 7.60868,0.6597 0.33985,-0.47478 1.06805,-0.80553 1.15185,-1.37528 -0.0759,-0.7495 0.0673,-1.61444 -0.63855,-2.10717 -3.10136,-3.1107 -6.10545,-6.32799 -8.74765,-9.84334 -5.53407,-6.79219 -11.66004,-13.069585 -17.66982,-19.435585 -9.65354,-10.157194 -19.41269,-20.183398 -28.92296,-30.472936 -2.53928,-2.754976 -4.99555,-5.584635 -7.45998,-8.406315 -0.56381,-0.154381 -1.12564,-0.718353 -1.69075,-0.602771 -0.43121,0.190507 -0.86241,0.381014 -1.29362,0.571521 z" /><path
       id="path4541"
       style="fill:#deaa87;fill-opacity:1;fill-rule:evenodd;stroke:#000000;stroke-width:0.204848;stroke-linecap:round;stroke-linejoin:round;stroke-dasharray:none"
       d="m 599.0332,64.648438 c -1.50537,0.525896 -2.35893,2.007455 -3.41798,3.105744 -7.87046,9.400032 -15.65918,18.870745 -23.76202,28.0733 -6.06741,6.937118 -12.23526,13.788778 -18.59929,20.455718 -0.33069,0.75349 -0.6846,1.50224 -0.56566,2.34755 -0.24803,16.64585 -0.49495,33.29172 -0.74098,49.93761 0.29401,1.59474 1.10296,3.04421 1.62156,4.57559 5.94595,15.18093 11.67892,30.44524 17.13163,45.81044 2.97417,8.26302 5.79793,16.58019 8.83236,24.82121 1.05358,2.57722 2.00891,5.54494 4.55255,7.04094 1.97673,1.05273 4.15247,1.67534 6.22265,2.52033 16.65621,6.26562 33.33192,12.48295 50.08405,18.48757 1.40909,0.45991 2.78776,1.06907 4.23332,1.38608 1.43383,0.24968 2.675,-0.95383 2.9336,-2.29592 0.57218,-2.74803 0.33608,-5.58349 0.36037,-8.37152 -0.21631,-8.87531 -0.47111,-17.74982 -0.60294,-26.62708 -0.58592,-33.35454 -1.03041,-66.71178 -1.3136,-100.07029 -0.05,-6.38074 -0.0539,-12.76168 -0.0497,-19.14259 -0.30572,-0.74127 -0.5126,-1.54728 -1.19679,-2.04074 -8.691,-8.88161 -17.34967,-17.80979 -25.42235,-27.263942 -5.40763,-6.298161 -10.66828,-12.878485 -15.93376,-19.355165 -0.81537,-0.955396 -1.5508,-1.997525 -2.39483,-2.915175 -0.57196,-0.464603 -1.24555,-0.650535 -1.97219,-0.47966 z" /><path
       style="display:none;fill:#000000;fill-rule:evenodd;stroke:#000000;stroke-width:0.848379;stroke-linecap:round;stroke-linejoin:round;stroke-dasharray:none"
       id="path3316"
       d="m 581.64425,251.56367 c 27.02962,0.0937 54.04309,0.62606 81.04027,1.20962 6.35339,0.13363 12.70245,0.30638 19.0547,0.45002 0.73721,0.0164 12.40567,0.009 12.9947,0.0221 l 1.39585,-4.45133 v 0 c -0.63334,0.0133 -0.27618,0.007 -1.07163,0.0175 -6.76931,0.054 -13.54062,-7.5e-4 -20.30992,-0.0212 -27.0391,-0.17121 -66.0833,-0.46997 -93.08057,-1.20529 l -0.0234,3.97867 z"
       sodipodi:nodetypes="sccccsccccs"
       inkscape:label="sacada" /><path
       id="path2357"
       style="fill:#000000;stroke:none"
       d="m 597.59961,48.8125 -3.22656,2.714844 c -3.04198,2.559536 -32.38543,37.463334 -52.94922,60.234376 -5.08094,5.62629 -9.23828,10.67301 -9.23828,11.21484 0,1.43847 3.16122,2.89788 7.92773,3.66016 3.68617,0.58944 4.52105,0.33779 7.0957,-2.12891 l 2.91797,-2.79492 -0.60937,48.4082 c 5.86253,16.93488 22.92548,49.4043 16.27539,31.59375 -18.52515,-49.78925 -19.74075,-52.68359 -22.14258,-52.68359 -2.3872,0 -2.31134,-0.1779 -18.0918,42 -17.28207,46.19147 -19.2204,51.47321 -19.89843,54.20898 -0.36926,1.48994 -1.19069,3.10598 -1.82422,3.58985 -0.63354,0.48386 -7.90042,3.26225 -16.15039,6.17578 -8.24997,2.91353 -21.07503,7.53578 -28.5,10.27148 -13.04149,4.80514 -27.1652,9.84361 -54.5,19.44336 -22.42698,7.87619 -46.95078,17.33835 -48.20703,18.59961 -0.94218,0.9459 -0.78803,2.14551 0.70703,5.47657 1.05288,2.34585 2.50571,4.49217 3.22851,4.76953 1.10579,0.42433 16.9007,-3.87493 21.77735,-5.92774 1.33212,-0.56077 1.50881,5.41518 1.50781,51.37891 l -0.002,52.01367 -14.00586,0.0156 c -13.83812,0.0151 -18.22973,0.76073 -15.36329,2.60937 0.74622,0.48125 16.65749,1.12249 35.35743,1.42383 50.83428,0.81914 308.6676,1.05105 327.83984,0.29492 11.95517,-0.4715 16.66016,-0.99757 16.66016,-1.86133 0,-1.55643 -7.65678,-2.46155 -20.90235,-2.47265 l -9.52273,-0.01 c -0.32623,-21.81308 0.41619,-44.03788 0.42508,-62.47656 v -41.16407 l 8.75,2.8418 c 11.71207,3.80395 14.0088,3.91605 16.3125,0.79883 1.0161,-1.375 2.13869,-3.73017 2.49609,-5.23437 0.5585,-2.35092 0.24872,-2.89383 -2.20508,-3.86524 -5.41607,-2.14415 -37.89477,-14.0524 -52.85351,-19.37891 -8.24997,-2.93762 -23.84312,-7.9942 -24.72482,-8.34633 -1.4283,-0.5704 -1.55316,-3.69727 -2.13456,-47.97593 -0.359,-27.33456 -0.94247,-62.06591 -1.29687,-77.18164 l -0.64453,-27.48438 3.58398,2.73438 c 4.9958,3.81049 13.4789,3.40224 15.0625,-0.72461 0.6057,-1.57852 -21.27949,-26.046317 -46.87109,-52.402345 z m 0.51758,4.892578 c 13.52897,16.325241 46.86973,48.359482 55.98633,60.800782 3.23072,4.40891 7.08203,7.32275 7.08203,7.75 0,0.42725 -1.28442,0.77539 -2.85352,0.77539 -2.1878,0 -4.09495,-1.34018 -8.18555,-5.75 -2.93347,-3.1625 -40.67776,-46.017014 -50.13699,-56.427734 -0.99447,-1.094504 -2.02881,0.893649 -3.82394,2.677734 -4.28706,4.260679 -31.73818,36.66164 -39.36133,44.76563 -12.04217,12.80166 -14.26427,14.73437 -16.94531,14.73437 h -3.08594 l 3.03125,-3.25 c 1.66706,-1.7875 6.64932,-7.075 11.07226,-11.75 4.42297,-4.675 14.9034,-16.296536 23.28907,-25.826172 8.38567,-9.529634 23.55485,-28.954661 23.93164,-28.5 z m 1.30859,12.408203 c 0.40694,-0.03498 14.86662,18.545305 19.91211,24.177735 5.04552,5.632426 12.65862,13.840234 16.91602,18.240234 l 7.74023,8 0.60156,57.5 c 0.3314,31.62491 0.75221,67.06694 1.21875,78.75 0.52594,13.17066 0.74317,19.12192 -0.87911,18.81187 -1.0687,-0.20425 -23.32276,-8.57677 -57.35136,-21.10289 -2.60712,-0.95968 -4.69338,-2.41524 -5.30859,-4.16211 -14.87388,-42.23393 -14.8557,-42.55718 -28.49023,-77.67187 l 0.71679,-51.02148 17.0918,-18.72852 c 9.40035,-10.300535 27.4251,-32.757989 27.83203,-32.792969 z m -56.36719,89.496099 c 0.34516,-0.21332 4.53438,10.25746 9.3086,23.26757 4.77419,13.01014 13.46953,36.70436 19.32422,52.6543 5.85466,15.94994 14.62298,40.25003 19.48437,54 4.86141,13.74997 12.72701,35.57503 17.47852,48.5 4.75148,12.92497 11.04022,30.25003 13.97461,38.5 2.93437,8.24997 7.18435,19.84209 9.44531,25.75977 2.26093,5.91765 4.11133,11.20518 4.11133,11.75 0,0.54482 -1.33871,0.99023 -2.97461,0.99023 -3.61308,0 -4.071,-0.80303 -10.53125,-18.5 -25.54721,-69.98297 -40.95796,-112.74252 -60.00977,-166.5 -13.45905,-37.97672 -17.02909,-47 -18.59765,-47 -2.63393,0 -6.14918,9.11235 -35.87305,93 -5.94388,16.77494 -14.45331,40.5219 -18.91016,52.76953 -4.45683,12.24764 -8.10351,22.5196 -8.10351,22.82813 0,0.30853 -1.09415,3.33862 -2.43164,6.73242 -1.33751,3.39378 -6.32617,16.96995 -11.08594,30.16992 -4.7598,13.19997 -9.17818,24.46819 -9.81836,25.03906 -0.64019,0.57086 -2.42178,0.87502 -3.95899,0.67774 -3.28338,-0.42139 -3.54353,0.92556 3.50977,-18.2168 2.73586,-7.42497 9.46012,-25.87506 14.94336,-41 5.48324,-15.12494 12.85993,-35.37503 16.39063,-45 3.53067,-9.62497 12.07554,-33.25006 18.98828,-52.5 6.91271,-19.24994 17.01164,-46.93398 22.44336,-61.52148 5.43169,-14.58753 10.41329,-28.65832 11.07031,-31.26758 0.65703,-2.60929 1.4771,-4.91952 1.82226,-5.13281 z m 0.34961,30.92187 1.89063,4.35156 c 2.20089,5.06571 35.69908,96.99613 45.23828,124.14844 3.5747,10.17497 8.82176,24.57503 11.66016,32 2.83837,7.42497 8.42572,22.72503 12.41601,34 3.99033,11.27497 8.20774,22.35758 9.3711,24.62695 1.16333,2.2694 1.83528,4.4069 1.49218,4.75 -0.89602,0.89601 -42.26628,0.77218 -42.41797,-0.12695 -0.0696,-0.4125 -0.1821,-21.09454 -0.25,-45.96094 -0.10844,-39.70908 -0.31542,-45.40495 -1.69921,-46.79101 -1.37449,-1.37671 -6.03478,-1.57985 -36.52149,-1.59375 -19.22089,-0.009 -35.72887,0.28402 -36.68359,0.65039 -0.95473,0.36636 -2.07077,1.85481 -2.47852,3.30664 -0.40775,1.45184 -0.61087,22.32623 -0.45312,46.38867 l 0.28711,43.75 h -21.64454 c -20.22167,0 -21.59691,-0.11498 -20.92187,-1.75 0.39738,-0.9625 2.50744,-6.70003 4.68945,-12.75 4.44259,-12.31786 12.3672,-34.10936 22.18164,-61 3.61326,-9.89997 16.67798,-45.91082 29.03321,-80.02344 12.3552,-34.11258 22.99155,-63.3627 23.63672,-65 z m -41.22265,67.9043 c 0,0.78727 -3.92284,9.5957 -4.27344,9.5957 -1.15515,0 -90.3392,30.30243 -110.10938,37.41211 -13.13558,4.72377 -24.25732,8.58789 -24.71484,8.58789 -0.88621,0 -3.29225,-3.9507 -2.73437,-4.49023 0.18206,-0.17607 5.50703,-2.12057 11.83203,-4.32032 6.32497,-2.19972 18.025,-6.33337 26,-9.18554 7.97497,-2.8522 18.1,-6.45789 22.5,-8.01172 4.39997,-1.55383 13.85,-4.92859 21,-7.5 7.14997,-2.57144 15.925,-5.70532 19.5,-6.96485 9.3846,-3.30635 32.85936,-12.10836 37.25,-13.96679 2.06247,-0.87299 3.75,-1.39303 3.75,-1.15625 z m 83,0.23828 c 0,-0.2122 4.6125,1.36646 10.25,3.50976 5.63747,2.14333 19.70003,7.30209 31.25,11.46289 11.54997,4.16084 23.925,8.62777 27.5,9.92774 5.14727,1.87171 54.33413,19.30167 69.75,24.7168 3.42577,1.20336 4.0346,2.55526 2.04883,4.54101 -0.66,0.66 -1.44753,1.16475 -1.75,1.12305 -0.6673,-0.0921 -14.49259,-4.92079 -34.04883,-11.89258 -12.02647,-4.28743 -61.03124,-20.99925 -93.35938,-31.83789 -6.31891,-2.11855 -8.03298,-3.13043 -8.75,-5.16406 -0.49045,-1.39107 -1.34086,-3.31059 -1.89062,-4.26563 -0.54976,-0.95504 -1,-1.90888 -1,-2.12109 z m 6.03711,14.02734 c 0.85624,0.11669 2.55336,0.72061 5.59179,1.88086 3.77916,1.4431 25.09616,8.83518 47.3711,16.42774 22.27491,7.59253 41.75486,14.38393 43.28906,15.09179 l 2.78906,1.28711 -0.28906,53.82031 -0.28906,53.82032 -23.77539,0.002 h -23.77344 l -1.0625,-2.75 c -0.9149,-2.36827 -7.63835,-20.68988 -20.45899,-55.75 -1.81006,-4.95 -6.28377,-17.10003 -9.9414,-27 -3.65766,-9.89997 -9.49107,-26.10003 -12.96094,-36 -3.46987,-9.89997 -6.63699,-18.80424 -7.03906,-19.78711 -0.32326,-0.79022 -0.30742,-1.15966 0.54883,-1.04297 z m -95.44922,0.33008 c 1.16447,-5.4e-4 -3.02372,12.19986 -21.28516,62 -6.35296,17.32494 -15.29616,41.73404 -19.87305,54.24219 -4.57686,12.50812 -8.68275,23.30818 -9.125,24 -0.61672,0.96474 -6.28043,1.19564 -24.30468,0.99023 l -23.5,-0.26758 v -53.63086 -53.63281 l 4,-1.42773 c 2.19997,-0.78559 21.55006,-7.41575 43,-14.73438 21.44994,-7.3186 41.475,-14.25853 44.5,-15.42187 3.02497,-1.16335 5.98967,-2.11691 6.58789,-2.11719 z m 198.01172,35 c 0.0554,-2e-4 1.49411,0.48507 3.19531,1.07813 l 3.0918,1.07812 0.0488,42.67188 c -0.17358,20.73156 -0.006,41.45108 0.0302,62.17187 h -2.32316 c -2.00367,0 -3.66917,-0.3375 -3.70117,-0.75 -0.1065,-1.38455 -0.44379,-106.24963 -0.34179,-106.25 z m -301.59961,0.60352 c 1.32352,-0.55116 1.48198,5.64184 1.34179,52.63671 l -0.16015,53.25977 -2.9961,0.30664 c -1.64847,0.1685 -3.19083,-0.0565 -3.42578,-0.5 -0.23494,-0.4435 -0.0791,-20.8317 0.34571,-45.30664 0.42485,-24.47494 0.51893,-47.69416 0.20898,-51.59961 -0.50443,-6.35603 -0.36727,-7.1572 1.31055,-7.63672 1.03092,-0.29464 2.55,-0.81659 3.375,-1.16015 z m 262.47656,10.32617 c -9.27061,0.0122 -18.62294,0.45672 -19.80664,1.32226 -1.5401,1.12609 -1.68259,3.44866 -1.43945,23.20508 l 0.26953,21.95508 2.5,0.69336 c 3.11977,0.86704 35.26397,1.11368 37.41797,0.28711 1.37657,-0.52826 1.58203,-3.48426 1.58203,-22.79883 0,-15.92784 -0.34,-22.53134 -1.20117,-23.39258 -0.86285,-0.86283 -10.05166,-1.28365 -19.32227,-1.27148 z m -18.01367,3.38086 c 0.0459,-0.10451 3.56087,0.0731 7.81054,0.39453 l 7.72657,0.58398 v 8.35547 8.35547 h -7.39844 -7.39649 l -0.4121,-8.75 c -0.227,-4.8125 -0.37608,-8.83493 -0.33008,-8.93945 z m 35.03711,0.68554 -0.32422,8.50196 -0.32227,8.50195 h -7.42773 -7.42578 v -8.5 -8.5 l 7.75,-0.002 z m -163,0.42383 c 0,-0.0441 7.42503,0.1184 16.5,0.36133 l 16.5,0.44141 0.0234,44.88867 0.0254,44.88867 H 525.51559 509.2988 l -0.30664,-45.25 c -0.16856,-24.88744 -0.30664,-45.28598 -0.30664,-45.33008 z m 70,0.004 -0.10938,45.53906 -0.10742,45.53711 h -7.39258 c -4.06518,0 -11.32815,-0.13015 -16.14062,-0.28906 l -8.75,-0.28907 -0.0762,-42.71093 c -0.0421,-23.49103 -0.23263,-43.52496 -0.42188,-44.52149 -0.18924,-0.99652 0.18432,-1.98137 0.82812,-2.1875 0.64382,-0.20612 8.14496,-0.53321 16.66993,-0.72656 z m 58.8789,20.99023 c 0.0662,-0.0478 3.3836,0.11594 7.3711,0.36328 l 7.25,0.44922 v 8.88672 8.88672 h -7.875 -7.875 l 0.50586,-9.25 c 0.2773,-5.08747 0.55704,-9.28814 0.62304,-9.33594 z m 18.61524,0.0859 7.5039,0.33008 7.50196,0.32812 v 8.67188 h -0.008 v 8.66992 h -7.49804 -7.5 v -9 z"
       sodipodi:nodetypes="cssssccccssssssssssscccssssccccssssssscccscccssssssssccsscsscccssssccsssssssssssssssssssssssssssscssssssssssssccsssssccsssssssssssssssssssssssssssccccccsssssssssscccccssssccccccsscscssssssscccssssscccccccscccccccccscccccccscccccccssscscccccccscccsccccccsss"
       inkscape:label="contorno"
       inkscape:path-effect="#path-effect4610;#path-effect4614"
       inkscape:original-d="m 597.59961,48.8125 -3.22656,2.714844 c -3.04198,2.559536 -32.38543,37.463334 -52.94922,60.234376 -5.08094,5.62629 -9.23828,10.67301 -9.23828,11.21484 0,1.43847 3.16122,2.89788 7.92773,3.66016 3.68617,0.58944 4.52105,0.33779 7.0957,-2.12891 l 2.91797,-2.79492 -0.60937,48.4082 c 5.86253,16.93488 22.92548,49.4043 16.27539,31.59375 -18.52515,-49.78925 -19.74075,-52.68359 -22.14258,-52.68359 -2.3872,0 -2.31134,-0.1779 -18.0918,42 -17.28207,46.19147 -19.2204,51.47321 -19.89843,54.20898 -0.36926,1.48994 -1.19069,3.10598 -1.82422,3.58985 -0.63354,0.48386 -7.90042,3.26225 -16.15039,6.17578 -8.24997,2.91353 -21.07503,7.53578 -28.5,10.27148 -13.04149,4.80514 -27.1652,9.84361 -54.5,19.44336 -22.42698,7.87619 -46.95078,17.33835 -48.20703,18.59961 -0.94218,0.9459 -0.78803,2.14551 0.70703,5.47657 1.05288,2.34585 2.50571,4.49217 3.22851,4.76953 1.10579,0.42433 16.9007,-3.87493 21.77735,-5.92774 1.33212,-0.56077 1.50881,5.41518 1.50781,51.37891 l -0.002,52.01367 -14.00586,0.0156 c -13.83812,0.0151 -18.22973,0.76073 -15.36329,2.60937 0.74622,0.48125 16.65749,1.12249 35.35743,1.42383 50.83428,0.81914 308.6676,1.05105 327.83984,0.29492 11.95517,-0.4715 16.66016,-0.99757 16.66016,-1.86133 0,-1.55643 -7.65678,-2.46155 -20.90235,-2.47265 l -9.52273,-0.01 c -0.32623,-21.81308 0.41619,-44.03788 0.42508,-62.47656 v -41.16407 l 8.75,2.8418 c 11.71207,3.80395 14.0088,3.91605 16.3125,0.79883 1.0161,-1.375 2.13869,-3.73017 2.49609,-5.23437 0.5585,-2.35092 0.24872,-2.89383 -2.20508,-3.86524 -5.41607,-2.14415 -37.89477,-14.0524 -52.85351,-19.37891 -8.24997,-2.93762 -23.84312,-7.9942 -24.72482,-8.34633 -1.4283,-0.5704 -1.55316,-3.69727 -2.13456,-47.97593 -0.359,-27.33456 -0.94247,-62.06591 -1.29687,-77.18164 l -0.64453,-27.48438 3.58398,2.73438 c 4.9958,3.81049 13.4789,3.40224 15.0625,-0.72461 0.6057,-1.57852 -21.27949,-26.046317 -46.87109,-52.402345 z m 0.51758,4.892578 c 13.52897,16.325241 46.86973,48.359482 55.98633,60.800782 3.23072,4.40891 7.08203,7.32275 7.08203,7.75 0,0.42725 -1.28442,0.77539 -2.85352,0.77539 -2.1878,0 -4.09495,-1.34018 -8.18555,-5.75 -2.93347,-3.1625 -40.67776,-46.017014 -50.13699,-56.427734 -0.99447,-1.094504 -2.02881,0.893649 -3.82394,2.677734 -4.28706,4.260679 -31.73818,36.66164 -39.36133,44.76563 -12.04217,12.80166 -14.26427,14.73437 -16.94531,14.73437 h -3.08594 l 3.03125,-3.25 c 1.66706,-1.7875 6.64932,-7.075 11.07226,-11.75 4.42297,-4.675 14.9034,-16.296536 23.28907,-25.826172 8.38567,-9.529634 23.55485,-28.954661 23.93164,-28.5 z m 1.30859,12.408203 c 0.40694,-0.03498 14.86662,18.545305 19.91211,24.177735 5.04552,5.632426 12.65862,13.840234 16.91602,18.240234 l 7.74023,8 0.60156,57.5 c 0.3314,31.62491 0.75221,67.06694 1.21875,78.75 0.52594,13.17066 0.74317,19.12192 -0.87911,18.81187 -1.0687,-0.20425 -23.32276,-8.57677 -57.35136,-21.10289 -2.60712,-0.95968 -4.69338,-2.41524 -5.30859,-4.16211 -14.87388,-42.23393 -14.8557,-42.55718 -28.49023,-77.67187 l 0.71679,-51.02148 17.0918,-18.72852 c 9.40035,-10.300535 27.4251,-32.757989 27.83203,-32.792969 z m -56.36719,89.496099 c 0.34516,-0.21332 4.53438,10.25746 9.3086,23.26757 4.77419,13.01014 13.46953,36.70436 19.32422,52.6543 5.85466,15.94994 14.62298,40.25003 19.48437,54 4.86141,13.74997 12.72701,35.57503 17.47852,48.5 4.75148,12.92497 11.04022,30.25003 13.97461,38.5 2.93437,8.24997 7.18435,19.84209 9.44531,25.75977 2.26093,5.91765 4.11133,11.20518 4.11133,11.75 0,0.54482 -1.33871,0.99023 -2.97461,0.99023 -3.61308,0 -4.071,-0.80303 -10.53125,-18.5 -25.54721,-69.98297 -40.95796,-112.74252 -60.00977,-166.5 -13.45905,-37.97672 -17.02909,-47 -18.59765,-47 -2.63393,0 -6.14918,9.11235 -35.87305,93 -5.94388,16.77494 -14.45331,40.5219 -18.91016,52.76953 -4.45683,12.24764 -8.10351,22.5196 -8.10351,22.82813 0,0.30853 -1.09415,3.33862 -2.43164,6.73242 -1.33751,3.39378 -6.32617,16.96995 -11.08594,30.16992 -4.7598,13.19997 -9.17818,24.46819 -9.81836,25.03906 -0.64019,0.57086 -2.42178,0.87502 -3.95899,0.67774 -3.28338,-0.42139 -3.54353,0.92556 3.50977,-18.2168 2.73586,-7.42497 9.46012,-25.87506 14.94336,-41 5.48324,-15.12494 12.85993,-35.37503 16.39063,-45 3.53067,-9.62497 12.07554,-33.25006 18.98828,-52.5 6.91271,-19.24994 17.01164,-46.93398 22.44336,-61.52148 5.43169,-14.58753 10.41329,-28.65832 11.07031,-31.26758 0.65703,-2.60929 1.4771,-4.91952 1.82226,-5.13281 z m 0.34961,30.92187 1.89063,4.35156 c 2.20089,5.06571 35.69908,96.99613 45.23828,124.14844 3.5747,10.17497 8.82176,24.57503 11.66016,32 2.83837,7.42497 8.42572,22.72503 12.41601,34 3.99033,11.27497 8.20774,22.35758 9.3711,24.62695 1.16333,2.2694 1.83528,4.4069 1.49218,4.75 -0.89602,0.89601 -42.26628,0.77218 -42.41797,-0.12695 -0.0696,-0.4125 -0.1821,-21.09454 -0.25,-45.96094 -0.10844,-39.70908 -0.31542,-45.40495 -1.69921,-46.79101 -1.37449,-1.37671 -6.03478,-1.57985 -36.52149,-1.59375 -19.22089,-0.009 -35.72887,0.28402 -36.68359,0.65039 -0.95473,0.36636 -2.07077,1.85481 -2.47852,3.30664 -0.40775,1.45184 -0.61087,22.32623 -0.45312,46.38867 l 0.28711,43.75 h -21.64454 c -20.22167,0 -21.59691,-0.11498 -20.92187,-1.75 0.39738,-0.9625 2.50744,-6.70003 4.68945,-12.75 4.44259,-12.31786 12.3672,-34.10936 22.18164,-61 3.61326,-9.89997 16.67798,-45.91082 29.03321,-80.02344 12.3552,-34.11258 22.99155,-63.3627 23.63672,-65 z m -41.22265,67.9043 c 0,0.78727 -3.92284,9.5957 -4.27344,9.5957 -1.15515,0 -90.3392,30.30243 -110.10938,37.41211 -13.13558,4.72377 -24.25732,8.58789 -24.71484,8.58789 -0.88621,0 -3.29225,-3.9507 -2.73437,-4.49023 0.18206,-0.17607 5.50703,-2.12057 11.83203,-4.32032 6.32497,-2.19972 18.025,-6.33337 26,-9.18554 7.97497,-2.8522 18.1,-6.45789 22.5,-8.01172 4.39997,-1.55383 13.85,-4.92859 21,-7.5 7.14997,-2.57144 15.925,-5.70532 19.5,-6.96485 9.3846,-3.30635 32.85936,-12.10836 37.25,-13.96679 2.06247,-0.87299 3.75,-1.39303 3.75,-1.15625 z m 83,0.23828 c 0,-0.2122 4.6125,1.36646 10.25,3.50976 5.63747,2.14333 19.70003,7.30209 31.25,11.46289 11.54997,4.16084 23.925,8.62777 27.5,9.92774 5.14727,1.87171 54.33413,19.30167 69.75,24.7168 3.42577,1.20336 4.0346,2.55526 2.04883,4.54101 -0.66,0.66 -1.44753,1.16475 -1.75,1.12305 -0.6673,-0.0921 -14.49259,-4.92079 -34.04883,-11.89258 -12.02647,-4.28743 -61.03124,-20.99925 -93.35938,-31.83789 -6.31891,-2.11855 -8.03298,-3.13043 -8.75,-5.16406 -0.49045,-1.39107 -1.34086,-3.31059 -1.89062,-4.26563 -0.54976,-0.95504 -1,-1.90888 -1,-2.12109 z m 6.03711,14.02734 c 0.85624,0.11669 2.55336,0.72061 5.59179,1.88086 3.77916,1.4431 25.09616,8.83518 47.3711,16.42774 22.27491,7.59253 41.75486,14.38393 43.28906,15.09179 l 2.78906,1.28711 -0.28906,53.82031 -0.28906,53.82032 -23.77539,0.002 h -23.77344 l -1.0625,-2.75 c -0.9149,-2.36827 -7.63835,-20.68988 -20.45899,-55.75 -1.81006,-4.95 -6.28377,-17.10003 -9.9414,-27 -3.65766,-9.89997 -9.49107,-26.10003 -12.96094,-36 -3.46987,-9.89997 -6.63699,-18.80424 -7.03906,-19.78711 -0.32326,-0.79022 -0.30742,-1.15966 0.54883,-1.04297 z m -95.44922,0.33008 c 1.16447,-5.4e-4 -3.02372,12.19986 -21.28516,62 -6.35296,17.32494 -15.29616,41.73404 -19.87305,54.24219 -4.57686,12.50812 -8.68275,23.30818 -9.125,24 -0.61672,0.96474 -6.28043,1.19564 -24.30468,0.99023 l -23.5,-0.26758 v -53.63086 -53.63281 l 4,-1.42773 c 2.19997,-0.78559 21.55006,-7.41575 43,-14.73438 21.44994,-7.3186 41.475,-14.25853 44.5,-15.42187 3.02497,-1.16335 5.98967,-2.11691 6.58789,-2.11719 z m 198.01172,35 c 0.0554,-2e-4 1.49411,0.48507 3.19531,1.07813 l 3.0918,1.07812 0.0488,42.67188 c -0.17358,20.73156 -0.006,41.45108 0.0302,62.17187 h -2.32316 c -2.00367,0 -3.66917,-0.3375 -3.70117,-0.75 -0.1065,-1.38455 -0.44379,-106.24963 -0.34179,-106.25 z m -301.59961,0.60352 c 1.32352,-0.55116 1.48198,5.64184 1.34179,52.63671 l -0.16015,53.25977 -2.9961,0.30664 c -1.64847,0.1685 -3.19083,-0.0565 -3.42578,-0.5 -0.23494,-0.4435 -0.0791,-20.8317 0.34571,-45.30664 0.42485,-24.47494 0.51893,-47.69416 0.20898,-51.59961 -0.50443,-6.35603 -0.36727,-7.1572 1.31055,-7.63672 1.03092,-0.29464 2.55,-0.81659 3.375,-1.16015 z m 262.47656,10.32617 c -9.27061,0.0122 -18.62294,0.45672 -19.80664,1.32226 -1.5401,1.12609 -1.68259,3.44866 -1.43945,23.20508 l 0.26953,21.95508 2.5,0.69336 c 3.11977,0.86704 35.26397,1.11368 37.41797,0.28711 1.37657,-0.52826 1.58203,-3.48426 1.58203,-22.79883 0,-15.92784 -0.34,-22.53134 -1.20117,-23.39258 -0.86285,-0.86283 -10.05166,-1.28365 -19.32227,-1.27148 z m -18.01367,3.38086 c 0.0459,-0.10451 3.56087,0.0731 7.81054,0.39453 l 7.72657,0.58398 v 8.35547 8.35547 h -7.39844 -7.39649 l -0.4121,-8.75 c -0.227,-4.8125 -0.37608,-8.83493 -0.33008,-8.93945 z m 35.03711,0.68554 -0.32422,8.50196 -0.32227,8.50195 h -7.42773 -7.42578 v -8.5 -8.5 l 7.75,-0.002 z m -163,0.42383 c 0,-0.0441 7.42503,0.1184 16.5,0.36133 l 16.5,0.44141 0.0234,44.88867 0.0254,44.88867 H 525.51559 509.2988 l -0.30664,-45.25 c -0.16856,-24.88744 -0.30664,-45.28598 -0.30664,-45.33008 z m 70,0.004 -0.10938,45.53906 -0.10742,45.53711 h -7.39258 c -4.06518,0 -11.32815,-0.13015 -16.14062,-0.28906 l -8.75,-0.28907 -0.0762,-42.71093 c -0.0421,-23.49103 -0.23263,-43.52496 -0.42188,-44.52149 -0.18924,-0.99652 0.18432,-1.98137 0.82812,-2.1875 0.64382,-0.20612 8.14496,-0.53321 16.66993,-0.72656 z m 58.8789,20.99023 c 0.0662,-0.0478 3.3836,0.11594 7.3711,0.36328 l 7.25,0.44922 v 8.88672 8.88672 h -7.875 -7.875 l 0.50586,-9.25 c 0.2773,-5.08747 0.55704,-9.28814 0.62304,-9.33594 z m 18.61524,0.0859 7.5039,0.33008 7.50196,0.32812 v 8.67188 h -0.008 v 8.66992 h -7.49804 -7.5 v -9 z"
       class="UnoptimicedTransforms" /></g><g
     inkscape:label="simplificado"
     inkscape:groupmode="layer"
     id="g4652"
     transform="translate(-353.49517,-48.8125)"><path
       id="path4616"
       style="fill:#deaa87;stroke:none;stroke-width:0.71434;stroke-linecap:round;stroke-linejoin:round"
       d="m 494.9375,267.42578 c -8.23928,2.8173 -16.43813,5.75301 -24.67806,8.56945 -23.56859,8.12255 -47.17414,16.25815 -70.78057,24.2741 -0.82029,0.3134 -1.76479,0.40229 -2.33084,1.15 -0.97087,0.57224 -0.71193,1.80602 -0.77952,2.75991 -0.19315,15.19747 -0.16947,30.39689 -0.19774,45.59536 -0.0148,20.01523 -0.003,40.03048 -0.007,60.04571 0.32065,0.49418 0.37955,1.26866 0.87285,1.57795 0.70716,0.33527 1.44236,0.51555 2.22715,0.42158 13.73033,-0.0511 27.46432,0.12531 41.19134,-0.24749 1.58393,-0.11767 3.22156,0.0153 4.76446,-0.38553 1.53418,-0.56915 1.94978,-2.32524 2.6108,-3.64579 3.17265,-7.73194 5.98442,-15.6057 8.909,-23.43315 10.09838,-27.44394 20.14442,-54.90775 30.09994,-82.40438 3.34633,-9.3486 6.80131,-18.66245 9.84855,-28.11446 0.3854,-1.52072 1.14384,-3.05928 0.88244,-4.65898 -0.25308,-0.54294 -0.49878,-1.11435 -1.11712,-1.31592 -0.42075,-0.3926 -1.00505,-0.14102 -1.51597,-0.18836 z" /><path
       id="path4618"
       style="fill:#deaa87;stroke:none;stroke-width:0.71434;stroke-linecap:round;stroke-linejoin:round"
       d="m 542.37109,185.83398 c -0.57661,0.6043 -1.08876,1.2466 -1.28138,2.07734 -10.71418,29.28881 -21.31403,58.62077 -31.97167,87.93026 -13.12098,36.19105 -26.28107,72.3677 -39.40865,108.55586 -2.7388,7.70368 -5.55903,15.38303 -8.02518,23.17955 -0.2176,0.75443 -0.55859,1.65643 0.0559,2.31857 0.25161,0.59303 0.65381,1.0964 1.3306,1.18448 3.13112,0.36133 6.29752,0.31865 9.44551,0.43695 89.1212,1.26464 43.37751,0.40576 130.97593,0.93009 6.5019,-0.0314 13.01177,0.0708 19.50612,-0.2909 1.31208,-0.13347 3.07759,-0.12148 3.69307,-1.53813 0.62555,-1.1343 -0.10548,-2.41961 -0.44648,-3.53977 -1.76954,-4.71942 -3.72376,-9.3678 -5.44685,-14.10565 -9.48756,-25.497 -18.70704,-51.09238 -27.98431,-76.66667 -14.07475,-38.80744 -27.94917,-77.68839 -42.41272,-116.35312 -1.68734,-4.38167 -3.25073,-8.81826 -5.1511,-13.11295 -0.22645,-0.53927 -0.8068,-0.78353 -1.23038,-1.14266 -0.54948,0.0456 -1.09896,0.0911 -1.64844,0.13671 z"
       sodipodi:nodetypes="ccccccccccccccccccc" /><path
       id="path4620"
       style="fill:#deaa87;stroke:none;stroke-width:0.71434;stroke-linecap:round;stroke-linejoin:round"
       d="m 590.78516,267.46094 c -0.59507,0.5375 -1.5607,0.9901 -1.47242,1.93241 0.10106,1.43983 0.75825,2.78171 1.14842,4.16096 4.53155,13.35664 9.38226,26.60236 14.14608,39.8768 11.79857,32.61491 23.81447,65.15056 35.77167,97.70756 0.58949,0.50499 0.99885,1.34941 1.87695,1.31055 h 46.76758 c 0.49521,-0.32026 1.26652,-0.38036 1.57962,-0.87221 0.39125,-0.75001 0.49283,-1.55653 0.44384,-2.39242 0.28837,-15.48318 0.57881,-30.96656 0.68094,-46.45235 0.17206,-19.76382 0.12462,-39.52846 0.13154,-59.29279 -0.38167,-0.70223 -0.49658,-1.66787 -1.38253,-1.90471 -7.28383,-2.79867 -14.6954,-5.24758 -22.05113,-7.84757 -23.95512,-8.33263 -47.93275,-16.60086 -71.89009,-24.9259 -1.68041,-0.52552 -3.34902,-1.19698 -5.10985,-1.38236 -0.21354,0.0273 -0.42708,0.0547 -0.64062,0.082 z"
       sodipodi:nodetypes="sccccccccccccccss" /><path
       id="path4622"
       style="fill:#784421;stroke:none;stroke-width:0.599213;stroke-linecap:round;stroke-linejoin:round"
       d="m 586.20508,253.58203 c -1.322,0.007 -2.38007,1.36203 -2.07227,2.64649 0.64113,2.1742 1.83535,4.14199 2.94336,6.10546 0.81611,1.62268 2.37271,2.67165 4.0127,3.34168 5.27763,2.20472 10.741,3.92627 16.13165,5.82874 28.00274,9.5448 56.01021,18.99892 83.93296,28.74301 9.66883,3.33565 19.31578,6.83076 29.02427,10.08964 1.45525,0.3636 2.88036,1.20322 4.41795,0.99889 1.96538,-0.45689 3.67495,-2.15695 4.02539,-4.16016 0.22436,-2.00726 -1.60959,-3.53059 -3.3604,-4.06956 -18.49371,-6.74235 -37.06899,-13.26055 -55.6115,-19.86805 -22.62253,-8.01476 -45.20615,-16.14074 -67.71953,-24.4586 -4.71195,-1.68703 -9.37772,-3.52282 -14.17185,-4.96707 -0.5082,-0.12677 -1.02492,-0.25179 -1.55273,-0.23047 z" /><path
       id="path4624"
       style="fill:#784421;stroke:none;stroke-width:0.599213;stroke-linecap:round;stroke-linejoin:round"
       d="m 542.10742,154.31836 c -0.56351,0.62457 -1.06722,1.28212 -1.23272,2.12619 -2.66566,7.98477 -5.38744,15.88588 -8.24987,23.80206 -6.4675,17.92227 -13.09105,35.78426 -19.57511,53.70277 -15.32106,42.1648 -30.57848,84.35304 -45.93871,126.50382 -5.38514,14.83918 -10.82504,29.65982 -15.97696,44.58205 -0.53132,1.64579 -1.44089,3.53687 -0.51882,5.21475 0.91098,1.48672 2.84628,1.4312 4.37734,1.50071 1.63994,-6.7e-4 3.6552,-0.26147 4.4756,-1.9005 1.71708,-3.19017 2.90887,-6.63121 4.24962,-9.98977 5.90036,-15.42447 11.47437,-30.97094 17.13423,-46.48436 15.16986,-41.82107 29.95981,-83.77803 44.94869,-125.66452 4.44459,-12.28493 8.82282,-24.59924 13.68996,-36.72514 1.34815,-3.19676 2.58812,-6.47335 4.43316,-9.42587 1.32073,2.34833 2.30912,4.93625 3.27348,7.30478 4.68594,12.00607 8.95713,24.16872 13.33038,36.2906 18.20772,50.9555 36.40387,101.91475 55.02091,152.72227 3.44771,9.30488 6.80779,18.64488 10.4807,27.86399 0.95431,2.0983 1.955,4.28195 3.64062,5.90039 1.6457,1.16729 3.88339,1.43315 5.8086,0.89062 1.51995,-0.38999 2.70171,-2.05719 2.1157,-3.61096 -2.83107,-8.36032 -5.96079,-16.61718 -8.95906,-24.91885 -13.85339,-37.93008 -27.57512,-75.89013 -41.20426,-113.90537 -11.61883,-32.2334 -23.29892,-64.44521 -35.29173,-96.54167 -2.30833,-6.12616 -4.59323,-12.26393 -7.17237,-18.28291 -0.48553,-0.32406 -0.83972,-1.04135 -1.41181,-1.10619 -0.48252,0.0504 -0.96505,0.10074 -1.44757,0.15111 z" /><path
       id="path4626"
       style="fill:#784421;stroke:none;stroke-width:0.599213;stroke-linecap:round;stroke-linejoin:round"
       d="m 501.15039,253.19531 c -2.15901,0.47107 -4.20797,1.35938 -6.29568,2.07516 -7.33801,2.68208 -14.59691,5.49022 -21.92878,8.13386 -31.77175,11.58742 -63.69817,22.91361 -95.61208,34.21208 -5.62123,2.01626 -11.26887,3.96532 -16.84315,6.1082 -1.38357,0.52434 -2.11123,2.20649 -1.47851,3.55859 0.78787,1.68739 1.9215,3.56036 3.83487,4.07949 1.38085,0.1757 2.65654,-0.58754 3.96477,-0.91616 16.12899,-5.38542 32.14195,-11.10987 48.22575,-16.62817 23.98881,-8.27191 48.03374,-16.44923 72.12695,-24.4707 3.85021,-1.35594 7.75705,-2.60177 11.45899,-4.33399 1.44532,-0.71277 1.86053,-2.41153 2.56639,-3.72949 0.80246,-1.86559 1.73778,-3.71127 2.18162,-5.70185 0.11091,-0.63961 -0.11254,-1.25752 -0.64848,-1.63522 -0.39237,-0.5704 -0.869,-0.76409 -1.55266,-0.7518 z" /><path
       id="path4628"
       style="fill:#784421;stroke:none;stroke-width:0.599213;stroke-linecap:round;stroke-linejoin:round"
       d="m 391.78906,303.3457 c -1.75698,0.1881 -3.57082,0.68792 -4.99056,1.77386 -1.00802,0.76609 -0.92352,2.09746 -0.87991,3.22377 -0.0414,22.21519 -0.28444,44.4296 -0.4911,66.64377 -0.11529,9.43535 -0.17313,18.87211 -0.38061,28.30587 -0.28315,1.91694 0.03,3.87665 0.32226,5.77734 0.21999,1.47289 1.04415,3.1547 2.68164,3.375 1.80799,0.19416 3.65777,-0.0149 5.43829,-0.25877 0.54879,-0.41774 1.47404,-0.53126 1.53169,-1.34589 0.39233,-1.1156 0.0985,-2.33734 0.184,-3.5004 -0.10872,-29.87159 -0.0935,-59.74403 -0.37846,-89.61467 -0.0686,-4.14367 -0.0403,-8.29345 -0.25289,-12.43195 -0.16548,-0.5458 -0.52859,-1.09912 -0.9195,-1.50622 -0.54037,-0.37758 -1.21944,-0.47594 -1.86485,-0.44171 z" /><path
       id="path4630"
       style="fill:#803300;fill-rule:evenodd;stroke:none;stroke-width:0.565045;stroke-linecap:round;stroke-linejoin:round;stroke-dasharray:none"
       d="m 693.64844,303.68945 c -0.93765,0.94359 -0.75961,2.33699 -0.86446,3.55149 -0.37227,11.36716 -0.37365,22.74309 -0.44957,34.11528 -0.0649,20.0841 -0.094,40.17008 0.21036,60.25246 0.0998,2.94966 0.0237,5.91859 0.36816,8.85162 0.26153,0.90928 1.01734,1.67993 1.94796,1.92344 1.66105,0.54424 3.46089,0.45865 5.1696,0.38737 0.5804,-0.36653 1.53548,-0.38318 1.62718,-1.20606 0.51992,-1.04037 0.18957,-2.23472 0.28178,-3.35255 0,-33.96211 0,-67.92422 0,-101.88633 -0.38248,-0.66113 -0.45304,-1.6151 -1.30323,-1.83714 -1.7648,-0.56046 -3.5843,-1.05927 -5.42919,-1.30153 -0.51953,0.16732 -1.03906,0.33464 -1.55859,0.50195 z" /><path
       id="path4644"
       style="fill:#784421;fill-opacity:1;fill-rule:evenodd;stroke:none;stroke-width:0.142747;stroke-linecap:round;stroke-linejoin:round;stroke-dasharray:none"
       d="m 596.57422,52.558594 c -3.85819,4.249479 -7.39481,8.77758 -11.06584,13.185961 -5.32731,6.533731 -10.69977,13.033147 -16.33725,19.303472 -8.26356,9.394242 -16.72961,18.685863 -25.33448,27.774253 -2.68469,2.88477 -5.45642,5.69349 -8.03782,8.67186 -0.0451,0.58728 -0.46651,1.23727 -0.26373,1.78324 0.33891,0.54545 0.59893,1.18329 1.28666,1.34748 1.43031,0.3357 2.96394,0.28194 4.41262,0.0451 2.62798,-0.6104 4.5304,-2.68828 6.48491,-4.40166 4.54517,-4.29913 8.77057,-8.92203 12.99849,-13.52924 9.54613,-10.66881 18.82061,-21.576732 28.25921,-32.340256 3.40926,-3.845139 6.73197,-7.775306 10.33356,-11.443686 5.90325,6.339015 11.5627,12.900225 17.33784,19.35545 10.49707,11.803514 20.90567,23.688132 31.52813,35.380732 1.95001,2.02335 3.7445,4.25606 6.0605,5.87951 2.22961,1.39997 5.17742,1.71206 7.60868,0.6597 0.33985,-0.47478 1.06805,-0.80553 1.15185,-1.37528 -0.0759,-0.7495 0.0673,-1.61444 -0.63855,-2.10717 -3.10136,-3.1107 -6.10545,-6.32799 -8.74765,-9.84334 -5.53407,-6.79219 -11.66004,-13.069585 -17.66982,-19.435585 -9.65354,-10.157194 -19.41269,-20.183398 -28.92296,-30.472936 -2.53928,-2.754976 -4.99555,-5.584635 -7.45998,-8.406315 -0.56381,-0.154381 -1.12564,-0.718353 -1.69075,-0.602771 -0.43121,0.190507 -0.86241,0.381014 -1.29362,0.571521 z" /><path
       id="path4646"
       style="fill:#deaa87;fill-opacity:1;fill-rule:evenodd;stroke:#000000;stroke-width:0.204848;stroke-linecap:round;stroke-linejoin:round;stroke-dasharray:none"
       d="m 599.0332,64.648438 c -1.50537,0.525896 -2.35893,2.007455 -3.41798,3.105744 -7.87046,9.400032 -15.65918,18.870745 -23.76202,28.0733 -6.06741,6.937118 -12.23526,13.788778 -18.59929,20.455718 -0.33069,0.75349 -0.6846,1.50224 -0.56566,2.34755 -0.24803,16.64585 -0.49495,33.29172 -0.74098,49.93761 0.29401,1.59474 1.10296,3.04421 1.62156,4.57559 5.94595,15.18093 11.67892,30.44524 17.13163,45.81044 2.97417,8.26302 5.79793,16.58019 8.83236,24.82121 1.05358,2.57722 2.00891,5.54494 4.55255,7.04094 1.97673,1.05273 4.15247,1.67534 6.22265,2.52033 16.65621,6.26562 33.33192,12.48295 50.08405,18.48757 1.40909,0.45991 2.78776,1.06907 4.23332,1.38608 1.43383,0.24968 2.675,-0.95383 2.9336,-2.29592 0.57218,-2.74803 0.33608,-5.58349 0.36037,-8.37152 -0.21631,-8.87531 -0.47111,-17.74982 -0.60294,-26.62708 -0.58592,-33.35454 -1.03041,-66.71178 -1.3136,-100.07029 -0.05,-6.38074 -0.0539,-12.76168 -0.0497,-19.14259 -0.30572,-0.74127 -0.5126,-1.54728 -1.19679,-2.04074 -8.691,-8.88161 -17.34967,-17.80979 -25.42235,-27.263942 -5.40763,-6.298161 -10.66828,-12.878485 -15.93376,-19.355165 -0.81537,-0.955396 -1.5508,-1.997525 -2.39483,-2.915175 -0.57196,-0.464603 -1.24555,-0.650535 -1.97219,-0.47966 z" /><path
       style="display:none;fill:#000000;fill-rule:evenodd;stroke:#000000;stroke-width:0.848379;stroke-linecap:round;stroke-linejoin:round;stroke-dasharray:none"
       id="path4648"
       d="m 581.64425,251.56367 c 27.02962,0.0937 54.04309,0.62606 81.04027,1.20962 6.35339,0.13363 12.70245,0.30638 19.0547,0.45002 0.73721,0.0164 12.40567,0.009 12.9947,0.0221 l 1.39585,-4.45133 v 0 c -0.63334,0.0133 -0.27618,0.007 -1.07163,0.0175 -6.76931,0.054 -13.54062,-7.5e-4 -20.30992,-0.0212 -27.0391,-0.17121 -66.0833,-0.46997 -93.08057,-1.20529 l -0.0234,3.97867 z"
       sodipodi:nodetypes="sccccsccccs"
       inkscape:label="sacada" /><path
       id="path4650"
       style="fill:#000000;stroke:none"
       d="m 597.59961,48.8125 -3.22656,2.714844 c -3.04198,2.559536 -32.38543,37.463334 -52.94922,60.234376 -5.08094,5.62629 -9.23828,10.67301 -9.23828,11.21484 0,1.43847 3.16122,2.89788 7.92773,3.66016 3.68617,0.58944 4.52105,0.33779 7.0957,-2.12891 l 0.91797,-1.23943 -0.46929,35.7245 1.85992,11.12821 c 5.86253,16.93488 22.92548,49.4043 16.27539,31.59375 -18.52515,-49.78925 -19.74075,-52.68359 -22.14258,-52.68359 -2.3872,0 -2.31134,-0.1779 -18.0918,42 -17.28207,46.19147 -19.2204,51.47321 -19.89843,54.20898 -0.36926,1.48994 -1.19069,3.10598 -1.82422,3.58985 -0.63354,0.48386 -7.90042,3.26225 -16.15039,6.17578 -8.24997,2.91353 -21.07503,7.53578 -28.5,10.27148 -13.04149,4.80514 -27.1652,9.84361 -54.5,19.44336 -22.42698,7.87619 -46.95078,17.33835 -48.20703,18.59961 -0.94218,0.9459 -0.78803,2.14551 0.70703,5.47657 1.05288,2.34585 2.50571,4.49217 3.22851,4.76953 1.10579,0.42433 16.9007,-3.87493 21.77735,-5.92774 1.33212,-0.56077 1.50881,5.41518 1.50781,51.37891 l -0.002,52.01367 -14.00586,0.0156 c -13.83812,0.0151 -18.22973,0.76073 -15.36329,2.60937 0.74622,0.48125 16.65749,1.12249 35.35743,1.42383 50.83428,0.81914 308.6676,1.05105 327.83984,0.29492 11.95517,-0.4715 16.66016,-0.99757 16.66016,-1.86133 0,-1.55643 -7.65678,-2.46155 -20.90235,-2.47265 l -9.52273,-0.01 c -0.32623,-21.81308 0.41619,-44.03788 0.42508,-62.47656 v -41.16407 l 8.75,2.8418 c 11.71207,3.80395 14.0088,3.91605 16.3125,0.79883 1.0161,-1.375 2.13869,-3.73017 2.49609,-5.23437 0.5585,-2.35092 0.24872,-2.89383 -2.20508,-3.86524 -5.41607,-2.14415 -37.89477,-14.0524 -52.85351,-19.37891 -8.24997,-2.93762 -21.84312,-7.37541 -22.72482,-7.72754 -1.4283,-0.5704 -1.55316,-3.69727 -2.13456,-47.97593 -0.359,-27.33456 -0.94247,-62.06591 -1.29687,-77.18164 l -0.64453,-27.48438 1.58398,2.11559 c 4.9958,3.81049 13.4789,3.40224 15.0625,-0.72461 0.6057,-1.57852 -21.27949,-26.046317 -46.87109,-52.402345 z m 0.51758,4.892578 c 13.52897,16.325241 46.86973,48.359482 55.98633,60.800782 3.23072,4.40891 7.08203,7.32275 7.08203,7.75 0,0.42725 -1.28442,0.77539 -2.85352,0.77539 -2.1878,0 -4.09495,-1.34018 -8.18555,-5.75 -2.93347,-3.1625 -40.67776,-46.017014 -50.13699,-56.427734 -0.99447,-1.094504 -2.02881,0.893649 -3.82394,2.677734 -4.28706,4.260679 -31.73818,36.66164 -39.36133,44.76563 -12.04217,12.80166 -14.26427,14.73437 -16.94531,14.73437 h -3.08594 l 3.03125,-3.25 c 1.66706,-1.7875 6.64932,-7.075 11.07226,-11.75 4.42297,-4.675 14.9034,-16.296536 23.28907,-25.826172 8.38567,-9.529634 23.55485,-28.954661 23.93164,-28.5 z m 1.30859,12.408203 c 0.40694,-0.03498 14.86662,18.545305 19.91211,24.177735 5.04552,5.632426 12.65862,13.840234 16.91602,18.240234 l 7.74023,8 0.60156,57.5 c 0.3314,31.62491 0.75221,67.06694 1.21875,78.75 0.52594,13.17066 0.74317,19.12192 -0.87911,18.81187 -1.0687,-0.20425 -23.32276,-8.57677 -57.35136,-21.10289 -2.60712,-0.95968 -4.69338,-2.41524 -5.30859,-4.16211 -14.87388,-42.23393 -14.8557,-42.55718 -28.49023,-77.67187 l 0.71679,-51.02148 17.0918,-18.72852 c 9.40035,-10.300535 27.4251,-32.757989 27.83203,-32.792969 z m -56.36719,89.496099 c 0.34516,-0.21332 4.53438,10.25746 9.3086,23.26757 4.77419,13.01014 13.46953,36.70436 19.32422,52.6543 5.85466,15.94994 14.62298,40.25003 19.48437,54 4.86141,13.74997 12.72701,35.57503 17.47852,48.5 4.75148,12.92497 11.04022,30.25003 13.97461,38.5 2.93437,8.24997 7.18435,19.84209 9.44531,25.75977 2.26093,5.91765 4.11133,11.20518 4.11133,11.75 0,0.54482 -1.33871,0.99023 -2.97461,0.99023 -3.61308,0 -4.071,-0.80303 -10.53125,-18.5 -25.54721,-69.98297 -40.95796,-112.74252 -60.00977,-166.5 -13.45905,-37.97672 -17.02909,-47 -18.59765,-47 -2.63393,0 -6.14918,9.11235 -35.87305,93 -5.94388,16.77494 -14.45331,40.5219 -18.91016,52.76953 -4.45683,12.24764 -8.10351,22.5196 -8.10351,22.82813 0,0.30853 -1.09415,3.33862 -2.43164,6.73242 -1.33751,3.39378 -6.32617,16.96995 -11.08594,30.16992 -4.7598,13.19997 -9.17818,24.46819 -9.81836,25.03906 -0.64019,0.57086 -2.42178,0.87502 -3.95899,0.67774 -3.28338,-0.42139 -3.54353,0.92556 3.50977,-18.2168 2.73586,-7.42497 9.46012,-25.87506 14.94336,-41 5.48324,-15.12494 12.85993,-35.37503 16.39063,-45 3.53067,-9.62497 12.07554,-33.25006 18.98828,-52.5 6.91271,-19.24994 17.01164,-46.93398 22.44336,-61.52148 5.43169,-14.58753 10.41329,-28.65832 11.07031,-31.26758 0.65703,-2.60929 1.4771,-4.91952 1.82226,-5.13281 z m 0.34961,30.92187 1.89063,4.35156 c 2.20089,5.06571 35.69908,96.99613 45.23828,124.14844 3.5747,10.17497 8.82176,24.57503 11.66016,32 2.83837,7.42497 8.42572,22.72503 12.41601,34 3.99033,11.27497 8.20774,22.35758 9.3711,24.62695 1.16333,2.2694 1.83528,4.4069 1.49218,4.75 -0.63619,0.63618 -22.58547,0.42152 -33.87966,0.4537 -35.99481,0.10256 -67.8476,-0.83065 -107.98167,-0.83065 -20.22167,0 -21.59691,-0.11498 -20.92187,-1.75 0.39738,-0.9625 2.50744,-6.70003 4.68945,-12.75 4.44259,-12.31786 12.3672,-34.10936 22.18164,-61 3.61326,-9.89997 16.67798,-45.91082 29.03321,-80.02344 12.3552,-34.11258 22.99155,-63.3627 23.63672,-65 z m -41.22265,67.9043 c 0,0.78727 -3.92284,9.5957 -4.27344,9.5957 -1.15515,0 -90.3392,30.30243 -110.10938,37.41211 -13.13558,4.72377 -24.25732,8.58789 -24.71484,8.58789 -0.88621,0 -3.29225,-3.9507 -2.73437,-4.49023 0.18206,-0.17607 5.50703,-2.12057 11.83203,-4.32032 6.32497,-2.19972 18.025,-6.33337 26,-9.18554 7.97497,-2.8522 18.1,-6.45789 22.5,-8.01172 4.39997,-1.55383 13.85,-4.92859 21,-7.5 7.14997,-2.57144 15.925,-5.70532 19.5,-6.96485 9.3846,-3.30635 32.85936,-12.10836 37.25,-13.96679 2.06247,-0.87299 3.75,-1.39303 3.75,-1.15625 z m 83,0.23828 c 0,-0.2122 4.6125,1.36646 10.25,3.50976 5.63747,2.14333 19.70003,7.30209 31.25,11.46289 11.54997,4.16084 23.925,8.62777 27.5,9.92774 5.14727,1.87171 54.33413,19.30167 69.75,24.7168 3.42577,1.20336 4.0346,2.55526 2.04883,4.54101 -0.66,0.66 -1.44753,1.16475 -1.75,1.12305 -0.6673,-0.0921 -14.49259,-4.92079 -34.04883,-11.89258 -12.02647,-4.28743 -61.03124,-20.99925 -93.35938,-31.83789 -6.31891,-2.11855 -8.03298,-3.13043 -8.75,-5.16406 -0.49045,-1.39107 -1.34086,-3.31059 -1.89062,-4.26563 -0.54976,-0.95504 -1,-1.90888 -1,-2.12109 z m 6.03711,14.02734 c 0.85624,0.11669 2.55336,0.72061 5.59179,1.88086 3.77916,1.4431 25.09616,8.83518 47.3711,16.42774 22.27491,7.59253 41.75486,14.38393 43.28906,15.09179 l 2.78906,1.28711 -0.28906,53.82031 -0.28906,53.82032 -23.77539,0.002 h -23.77344 l -1.0625,-2.75 c -0.9149,-2.36827 -7.63835,-20.68988 -20.45899,-55.75 -1.81006,-4.95 -6.28377,-17.10003 -9.9414,-27 -3.65766,-9.89997 -9.49107,-26.10003 -12.96094,-36 -3.46987,-9.89997 -6.63699,-18.80424 -7.03906,-19.78711 -0.32326,-0.79022 -0.30742,-1.15966 0.54883,-1.04297 z m -95.44922,0.33008 c 1.16447,-5.4e-4 -3.02372,12.19986 -21.28516,62 -6.35296,17.32494 -15.29616,41.73404 -19.87305,54.24219 -4.57686,12.50812 -8.68275,23.30818 -9.125,24 -0.61672,0.96474 -6.28043,1.19564 -24.30468,0.99023 l -23.5,-0.26758 v -53.63086 -53.63281 l 4,-1.42773 c 2.19997,-0.78559 21.55006,-7.41575 43,-14.73438 21.44994,-7.3186 41.475,-14.25853 44.5,-15.42187 3.02497,-1.16335 5.98967,-2.11691 6.58789,-2.11719 z m 198.01172,35 c 0.0554,-2e-4 1.49411,0.48507 3.19531,1.07813 l 3.0918,1.07812 0.0488,42.67188 c -0.17358,20.73156 -0.006,41.45108 0.0302,62.17187 h -2.32316 c -2.00367,0 -3.66917,-0.3375 -3.70117,-0.75 -0.1065,-1.38455 -0.44379,-106.24963 -0.34179,-106.25 z m -301.59961,0.60352 c 1.32352,-0.55116 1.48198,5.64184 1.34179,52.63671 l -0.16015,53.25977 -2.9961,0.30664 c -1.64847,0.1685 -3.19083,-0.0565 -3.42578,-0.5 -0.23494,-0.4435 -0.0791,-20.8317 0.34571,-45.30664 0.42485,-24.47494 0.51893,-47.69416 0.20898,-51.59961 -0.50443,-6.35603 -0.36727,-7.1572 1.31055,-7.63672 1.03092,-0.29464 2.55,-0.81659 3.375,-1.16015 z"
       sodipodi:nodetypes="csssscccccssssssssssscccssssccccssssssscccscccssssssssccsscsscccssssccsssssssssssssssssssssssssssscssssssacssssccsssssssssssssssssssssssssssccccccsssssssssscccccssssccccccsscscsssssss"
       inkscape:label="contorno"
       inkscape:path-effect="#path-effect4656;#path-effect4660"
       inkscape:original-d="m 597.59961,48.8125 -3.22656,2.714844 c -3.04198,2.559536 -32.38543,37.463334 -52.94922,60.234376 -5.08094,5.62629 -9.23828,10.67301 -9.23828,11.21484 0,1.43847 3.16122,2.89788 7.92773,3.66016 3.68617,0.58944 4.52105,0.33779 7.0957,-2.12891 l 0.91797,-1.23943 -0.46929,35.7245 1.85992,11.12821 c 5.86253,16.93488 22.92548,49.4043 16.27539,31.59375 -18.52515,-49.78925 -19.74075,-52.68359 -22.14258,-52.68359 -2.3872,0 -2.31134,-0.1779 -18.0918,42 -17.28207,46.19147 -19.2204,51.47321 -19.89843,54.20898 -0.36926,1.48994 -1.19069,3.10598 -1.82422,3.58985 -0.63354,0.48386 -7.90042,3.26225 -16.15039,6.17578 -8.24997,2.91353 -21.07503,7.53578 -28.5,10.27148 -13.04149,4.80514 -27.1652,9.84361 -54.5,19.44336 -22.42698,7.87619 -46.95078,17.33835 -48.20703,18.59961 -0.94218,0.9459 -0.78803,2.14551 0.70703,5.47657 1.05288,2.34585 2.50571,4.49217 3.22851,4.76953 1.10579,0.42433 16.9007,-3.87493 21.77735,-5.92774 1.33212,-0.56077 1.50881,5.41518 1.50781,51.37891 l -0.002,52.01367 -14.00586,0.0156 c -13.83812,0.0151 -18.22973,0.76073 -15.36329,2.60937 0.74622,0.48125 16.65749,1.12249 35.35743,1.42383 50.83428,0.81914 308.6676,1.05105 327.83984,0.29492 11.95517,-0.4715 16.66016,-0.99757 16.66016,-1.86133 0,-1.55643 -7.65678,-2.46155 -20.90235,-2.47265 l -9.52273,-0.01 c -0.32623,-21.81308 0.41619,-44.03788 0.42508,-62.47656 v -41.16407 l 8.75,2.8418 c 11.71207,3.80395 14.0088,3.91605 16.3125,0.79883 1.0161,-1.375 2.13869,-3.73017 2.49609,-5.23437 0.5585,-2.35092 0.24872,-2.89383 -2.20508,-3.86524 -5.41607,-2.14415 -37.89477,-14.0524 -52.85351,-19.37891 -8.24997,-2.93762 -21.84312,-7.37541 -22.72482,-7.72754 -1.4283,-0.5704 -1.55316,-3.69727 -2.13456,-47.97593 -0.359,-27.33456 -0.94247,-62.06591 -1.29687,-77.18164 l -0.64453,-27.48438 1.58398,2.11559 c 4.9958,3.81049 13.4789,3.40224 15.0625,-0.72461 0.6057,-1.57852 -21.27949,-26.046317 -46.87109,-52.402345 z m 0.51758,4.892578 c 13.52897,16.325241 46.86973,48.359482 55.98633,60.800782 3.23072,4.40891 7.08203,7.32275 7.08203,7.75 0,0.42725 -1.28442,0.77539 -2.85352,0.77539 -2.1878,0 -4.09495,-1.34018 -8.18555,-5.75 -2.93347,-3.1625 -40.67776,-46.017014 -50.13699,-56.427734 -0.99447,-1.094504 -2.02881,0.893649 -3.82394,2.677734 -4.28706,4.260679 -31.73818,36.66164 -39.36133,44.76563 -12.04217,12.80166 -14.26427,14.73437 -16.94531,14.73437 h -3.08594 l 3.03125,-3.25 c 1.66706,-1.7875 6.64932,-7.075 11.07226,-11.75 4.42297,-4.675 14.9034,-16.296536 23.28907,-25.826172 8.38567,-9.529634 23.55485,-28.954661 23.93164,-28.5 z m 1.30859,12.408203 c 0.40694,-0.03498 14.86662,18.545305 19.91211,24.177735 5.04552,5.632426 12.65862,13.840234 16.91602,18.240234 l 7.74023,8 0.60156,57.5 c 0.3314,31.62491 0.75221,67.06694 1.21875,78.75 0.52594,13.17066 0.74317,19.12192 -0.87911,18.81187 -1.0687,-0.20425 -23.32276,-8.57677 -57.35136,-21.10289 -2.60712,-0.95968 -4.69338,-2.41524 -5.30859,-4.16211 -14.87388,-42.23393 -14.8557,-42.55718 -28.49023,-77.67187 l 0.71679,-51.02148 17.0918,-18.72852 c 9.40035,-10.300535 27.4251,-32.757989 27.83203,-32.792969 z m -56.36719,89.496099 c 0.34516,-0.21332 4.53438,10.25746 9.3086,23.26757 4.77419,13.01014 13.46953,36.70436 19.32422,52.6543 5.85466,15.94994 14.62298,40.25003 19.48437,54 4.86141,13.74997 12.72701,35.57503 17.47852,48.5 4.75148,12.92497 11.04022,30.25003 13.97461,38.5 2.93437,8.24997 7.18435,19.84209 9.44531,25.75977 2.26093,5.91765 4.11133,11.20518 4.11133,11.75 0,0.54482 -1.33871,0.99023 -2.97461,0.99023 -3.61308,0 -4.071,-0.80303 -10.53125,-18.5 -25.54721,-69.98297 -40.95796,-112.74252 -60.00977,-166.5 -13.45905,-37.97672 -17.02909,-47 -18.59765,-47 -2.63393,0 -6.14918,9.11235 -35.87305,93 -5.94388,16.77494 -14.45331,40.5219 -18.91016,52.76953 -4.45683,12.24764 -8.10351,22.5196 -8.10351,22.82813 0,0.30853 -1.09415,3.33862 -2.43164,6.73242 -1.33751,3.39378 -6.32617,16.96995 -11.08594,30.16992 -4.7598,13.19997 -9.17818,24.46819 -9.81836,25.03906 -0.64019,0.57086 -2.42178,0.87502 -3.95899,0.67774 -3.28338,-0.42139 -3.54353,0.92556 3.50977,-18.2168 2.73586,-7.42497 9.46012,-25.87506 14.94336,-41 5.48324,-15.12494 12.85993,-35.37503 16.39063,-45 3.53067,-9.62497 12.07554,-33.25006 18.98828,-52.5 6.91271,-19.24994 17.01164,-46.93398 22.44336,-61.52148 5.43169,-14.58753 10.41329,-28.65832 11.07031,-31.26758 0.65703,-2.60929 1.4771,-4.91952 1.82226,-5.13281 z m 0.34961,30.92187 1.89063,4.35156 c 2.20089,5.06571 35.69908,96.99613 45.23828,124.14844 3.5747,10.17497 8.82176,24.57503 11.66016,32 2.83837,7.42497 8.42572,22.72503 12.41601,34 3.99033,11.27497 8.20774,22.35758 9.3711,24.62695 1.16333,2.2694 1.83528,4.4069 1.49218,4.75 -0.63619,0.63618 -22.58547,0.42152 -33.87966,0.4537 -35.99481,0.10256 -67.8476,-0.83065 -107.98167,-0.83065 -20.22167,0 -21.59691,-0.11498 -20.92187,-1.75 0.39738,-0.9625 2.50744,-6.70003 4.68945,-12.75 4.44259,-12.31786 12.3672,-34.10936 22.18164,-61 3.61326,-9.89997 16.67798,-45.91082 29.03321,-80.02344 12.3552,-34.11258 22.99155,-63.3627 23.63672,-65 z m -41.22265,67.9043 c 0,0.78727 -3.92284,9.5957 -4.27344,9.5957 -1.15515,0 -90.3392,30.30243 -110.10938,37.41211 -13.13558,4.72377 -24.25732,8.58789 -24.71484,8.58789 -0.88621,0 -3.29225,-3.9507 -2.73437,-4.49023 0.18206,-0.17607 5.50703,-2.12057 11.83203,-4.32032 6.32497,-2.19972 18.025,-6.33337 26,-9.18554 7.97497,-2.8522 18.1,-6.45789 22.5,-8.01172 4.39997,-1.55383 13.85,-4.92859 21,-7.5 7.14997,-2.57144 15.925,-5.70532 19.5,-6.96485 9.3846,-3.30635 32.85936,-12.10836 37.25,-13.96679 2.06247,-0.87299 3.75,-1.39303 3.75,-1.15625 z m 83,0.23828 c 0,-0.2122 4.6125,1.36646 10.25,3.50976 5.63747,2.14333 19.70003,7.30209 31.25,11.46289 11.54997,4.16084 23.925,8.62777 27.5,9.92774 5.14727,1.87171 54.33413,19.30167 69.75,24.7168 3.42577,1.20336 4.0346,2.55526 2.04883,4.54101 -0.66,0.66 -1.44753,1.16475 -1.75,1.12305 -0.6673,-0.0921 -14.49259,-4.92079 -34.04883,-11.89258 -12.02647,-4.28743 -61.03124,-20.99925 -93.35938,-31.83789 -6.31891,-2.11855 -8.03298,-3.13043 -8.75,-5.16406 -0.49045,-1.39107 -1.34086,-3.31059 -1.89062,-4.26563 -0.54976,-0.95504 -1,-1.90888 -1,-2.12109 z m 6.03711,14.02734 c 0.85624,0.11669 2.55336,0.72061 5.59179,1.88086 3.77916,1.4431 25.09616,8.83518 47.3711,16.42774 22.27491,7.59253 41.75486,14.38393 43.28906,15.09179 l 2.78906,1.28711 -0.28906,53.82031 -0.28906,53.82032 -23.77539,0.002 h -23.77344 l -1.0625,-2.75 c -0.9149,-2.36827 -7.63835,-20.68988 -20.45899,-55.75 -1.81006,-4.95 -6.28377,-17.10003 -9.9414,-27 -3.65766,-9.89997 -9.49107,-26.10003 -12.96094,-36 -3.46987,-9.89997 -6.63699,-18.80424 -7.03906,-19.78711 -0.32326,-0.79022 -0.30742,-1.15966 0.54883,-1.04297 z m -95.44922,0.33008 c 1.16447,-5.4e-4 -3.02372,12.19986 -21.28516,62 -6.35296,17.32494 -15.29616,41.73404 -19.87305,54.24219 -4.57686,12.50812 -8.68275,23.30818 -9.125,24 -0.61672,0.96474 -6.28043,1.19564 -24.30468,0.99023 l -23.5,-0.26758 v -53.63086 -53.63281 l 4,-1.42773 c 2.19997,-0.78559 21.55006,-7.41575 43,-14.73438 21.44994,-7.3186 41.475,-14.25853 44.5,-15.42187 3.02497,-1.16335 5.98967,-2.11691 6.58789,-2.11719 z m 198.01172,35 c 0.0554,-2e-4 1.49411,0.48507 3.19531,1.07813 l 3.0918,1.07812 0.0488,42.67188 c -0.17358,20.73156 -0.006,41.45108 0.0302,62.17187 h -2.32316 c -2.00367,0 -3.66917,-0.3375 -3.70117,-0.75 -0.1065,-1.38455 -0.44379,-106.24963 -0.34179,-106.25 z m -301.59961,0.60352 c 1.32352,-0.55116 1.48198,5.64184 1.34179,52.63671 l -0.16015,53.25977 -2.9961,0.30664 c -1.64847,0.1685 -3.19083,-0.0565 -3.42578,-0.5 -0.23494,-0.4435 -0.0791,-20.8317 0.34571,-45.30664 0.42485,-24.47494 0.51893,-47.69416 0.20898,-51.59961 -0.50443,-6.35603 -0.36727,-7.1572 1.31055,-7.63672 1.03092,-0.29464 2.55,-0.81659 3.375,-1.16015 z"
       class="UnoptimicedTransforms" /><path
       id="path4650-7"
       style="fill:#808000;stroke:none"
       d="m 354.32807,414.12645 c 0.74622,0.48125 16.65749,0.65226 35.35743,0.9536 50.83428,0.81914 308.6676,1.12942 327.83984,0.37329 11.95517,-0.4715 16.18564,-1.01165 16.18564,-1.87541 0,-1.55643 -7.18226,-2.52584 -20.42783,-2.53694 -77.19991,-0.35216 -147.81012,-3.36542 -347.37265,-0.77525 -2.11599,0.11283 -17.66785,0.92402 -11.58243,3.86071 z"
       sodipodi:nodetypes="csssccc"
       inkscape:label="contorno"
       inkscape:path-effect="#path-effect4656-3;#path-effect4660-6"
       inkscape:original-d="m 354.32807,414.12645 c 0.74622,0.48125 16.65749,0.65226 35.35743,0.9536 50.83428,0.81914 308.6676,1.12942 327.83984,0.37329 11.95517,-0.4715 16.18564,-1.01165 16.18564,-1.87541 0,-1.55643 -7.18226,-2.52584 -20.42783,-2.53694 -77.19991,-0.35216 -147.81012,-3.36542 -347.37265,-0.77525 -2.11599,0.11283 -17.66785,0.92402 -11.58243,3.86071 z"
       class="UnoptimicedTransforms"
       transform="translate(0.52313725,-0.074341)" /></g></svg>
